%TF.GenerationSoftware,KiCad,Pcbnew,(6.0.2)*%
%TF.CreationDate,2022-08-16T16:31:06+04:00*%
%TF.ProjectId,ClockPCB,436c6f63-6b50-4434-922e-6b696361645f,rev?*%
%TF.SameCoordinates,Original*%
%TF.FileFunction,Soldermask,Bot*%
%TF.FilePolarity,Negative*%
%FSLAX46Y46*%
G04 Gerber Fmt 4.6, Leading zero omitted, Abs format (unit mm)*
G04 Created by KiCad (PCBNEW (6.0.2)) date 2022-08-16 16:31:06*
%MOMM*%
%LPD*%
G01*
G04 APERTURE LIST*
G04 Aperture macros list*
%AMRoundRect*
0 Rectangle with rounded corners*
0 $1 Rounding radius*
0 $2 $3 $4 $5 $6 $7 $8 $9 X,Y pos of 4 corners*
0 Add a 4 corners polygon primitive as box body*
4,1,4,$2,$3,$4,$5,$6,$7,$8,$9,$2,$3,0*
0 Add four circle primitives for the rounded corners*
1,1,$1+$1,$2,$3*
1,1,$1+$1,$4,$5*
1,1,$1+$1,$6,$7*
1,1,$1+$1,$8,$9*
0 Add four rect primitives between the rounded corners*
20,1,$1+$1,$2,$3,$4,$5,0*
20,1,$1+$1,$4,$5,$6,$7,0*
20,1,$1+$1,$6,$7,$8,$9,0*
20,1,$1+$1,$8,$9,$2,$3,0*%
G04 Aperture macros list end*
%ADD10O,2.400000X1.600000*%
%ADD11R,2.400000X1.600000*%
%ADD12R,3.500000X3.500000*%
%ADD13RoundRect,0.750000X-0.750000X-1.000000X0.750000X-1.000000X0.750000X1.000000X-0.750000X1.000000X0*%
%ADD14RoundRect,0.875000X-0.875000X-0.875000X0.875000X-0.875000X0.875000X0.875000X-0.875000X0.875000X0*%
%ADD15R,1.200000X1.200000*%
%ADD16C,1.200000*%
%ADD17R,1.600000X1.600000*%
%ADD18C,1.600000*%
%ADD19O,1.700000X1.700000*%
%ADD20R,1.700000X1.700000*%
%ADD21O,1.600000X1.600000*%
%ADD22R,1.600000X2.400000*%
%ADD23O,1.600000X2.400000*%
%ADD24C,1.524000*%
%ADD25C,1.400000*%
%ADD26O,1.400000X1.400000*%
%ADD27C,1.440000*%
G04 APERTURE END LIST*
D10*
%TO.C,U-Hx1*%
X34035000Y-62825000D03*
X34035000Y-65365000D03*
X34035000Y-67905000D03*
X34035000Y-70445000D03*
X34035000Y-72985000D03*
X34035000Y-75525000D03*
X34035000Y-78065000D03*
X34035000Y-80605000D03*
X23875000Y-80605000D03*
X23875000Y-78065000D03*
X23875000Y-75525000D03*
X23875000Y-72985000D03*
X23875000Y-70445000D03*
X23875000Y-67905000D03*
X23875000Y-65365000D03*
D11*
X23875000Y-62825000D03*
%TD*%
D12*
%TO.C,J1*%
X30800000Y-107900000D03*
D13*
X24800000Y-107900000D03*
D14*
X27800000Y-103200000D03*
%TD*%
D15*
%TO.C,C1*%
X107500000Y-93600000D03*
D16*
X107500000Y-91600000D03*
%TD*%
D17*
%TO.C,U-DMx1*%
X54920000Y-38497500D03*
D18*
X57460000Y-38497500D03*
X60000000Y-38497500D03*
X62540000Y-38497500D03*
X65080000Y-38497500D03*
X65080000Y-23257500D03*
X62540000Y-23257500D03*
X60000000Y-23257500D03*
X57460000Y-23257500D03*
X54920000Y-23257500D03*
%TD*%
D17*
%TO.C,U-DHx1*%
X23920000Y-38497500D03*
D18*
X26460000Y-38497500D03*
X29000000Y-38497500D03*
X31540000Y-38497500D03*
X34080000Y-38497500D03*
X34080000Y-23257500D03*
X31540000Y-23257500D03*
X29000000Y-23257500D03*
X26460000Y-23257500D03*
X23920000Y-23257500D03*
%TD*%
D17*
%TO.C,U-DxH1*%
X38920000Y-38497500D03*
D18*
X41460000Y-38497500D03*
X44000000Y-38497500D03*
X46540000Y-38497500D03*
X49080000Y-38497500D03*
X49080000Y-23257500D03*
X46540000Y-23257500D03*
X44000000Y-23257500D03*
X41460000Y-23257500D03*
X38920000Y-23257500D03*
%TD*%
D17*
%TO.C,U-DSx1*%
X85920000Y-38497500D03*
D18*
X88460000Y-38497500D03*
X91000000Y-38497500D03*
X93540000Y-38497500D03*
X96080000Y-38497500D03*
X96080000Y-23257500D03*
X93540000Y-23257500D03*
X91000000Y-23257500D03*
X88460000Y-23257500D03*
X85920000Y-23257500D03*
%TD*%
D17*
%TO.C,U-DxS1*%
X100920000Y-38497500D03*
D18*
X103460000Y-38497500D03*
X106000000Y-38497500D03*
X108540000Y-38497500D03*
X111080000Y-38497500D03*
X111080000Y-23257500D03*
X108540000Y-23257500D03*
X106000000Y-23257500D03*
X103460000Y-23257500D03*
X100920000Y-23257500D03*
%TD*%
D17*
%TO.C,U-DxM1*%
X69920000Y-38497500D03*
D18*
X72460000Y-38497500D03*
X75000000Y-38497500D03*
X77540000Y-38497500D03*
X80080000Y-38497500D03*
X80080000Y-23257500D03*
X77540000Y-23257500D03*
X75000000Y-23257500D03*
X72460000Y-23257500D03*
X69920000Y-23257500D03*
%TD*%
D19*
%TO.C,TimeSet*%
X73600000Y-100640000D03*
X73600000Y-98100000D03*
D20*
X73600000Y-95560000D03*
%TD*%
%TO.C,Display*%
X81325000Y-95575000D03*
D19*
X81325000Y-98115000D03*
X81325000Y-100655000D03*
%TD*%
D17*
%TO.C,U2*%
X90280000Y-94290000D03*
D21*
X90280000Y-96830000D03*
X90280000Y-99370000D03*
X90280000Y-101910000D03*
X97900000Y-101910000D03*
X97900000Y-99370000D03*
X97900000Y-96830000D03*
X97900000Y-94290000D03*
%TD*%
D22*
%TO.C,U1*%
X38620000Y-90700000D03*
D23*
X36080000Y-90700000D03*
X33540000Y-90700000D03*
X31000000Y-90700000D03*
X28460000Y-90700000D03*
X25920000Y-90700000D03*
X23380000Y-90700000D03*
X23380000Y-98320000D03*
X25920000Y-98320000D03*
X28460000Y-98320000D03*
X31000000Y-98320000D03*
X33540000Y-98320000D03*
X36080000Y-98320000D03*
X38620000Y-98320000D03*
%TD*%
D11*
%TO.C,U-xS1*%
X101125000Y-62825000D03*
D10*
X101125000Y-65365000D03*
X101125000Y-67905000D03*
X101125000Y-70445000D03*
X101125000Y-72985000D03*
X101125000Y-75525000D03*
X101125000Y-78065000D03*
X101125000Y-80605000D03*
X111285000Y-80605000D03*
X111285000Y-78065000D03*
X111285000Y-75525000D03*
X111285000Y-72985000D03*
X111285000Y-70445000D03*
X111285000Y-67905000D03*
X111285000Y-65365000D03*
X111285000Y-62825000D03*
%TD*%
%TO.C,U-xM1*%
X80035000Y-62825000D03*
X80035000Y-65365000D03*
X80035000Y-67905000D03*
X80035000Y-70445000D03*
X80035000Y-72985000D03*
X80035000Y-75525000D03*
X80035000Y-78065000D03*
X80035000Y-80605000D03*
X69875000Y-80605000D03*
X69875000Y-78065000D03*
X69875000Y-75525000D03*
X69875000Y-72985000D03*
X69875000Y-70445000D03*
X69875000Y-67905000D03*
X69875000Y-65365000D03*
D11*
X69875000Y-62825000D03*
%TD*%
%TO.C,U-xH1*%
X38875000Y-62825000D03*
D10*
X38875000Y-65365000D03*
X38875000Y-67905000D03*
X38875000Y-70445000D03*
X38875000Y-72985000D03*
X38875000Y-75525000D03*
X38875000Y-78065000D03*
X38875000Y-80605000D03*
X49035000Y-80605000D03*
X49035000Y-78065000D03*
X49035000Y-75525000D03*
X49035000Y-72985000D03*
X49035000Y-70445000D03*
X49035000Y-67905000D03*
X49035000Y-65365000D03*
X49035000Y-62825000D03*
%TD*%
D11*
%TO.C,U-Sx1*%
X85875000Y-62825000D03*
D10*
X85875000Y-65365000D03*
X85875000Y-67905000D03*
X85875000Y-70445000D03*
X85875000Y-72985000D03*
X85875000Y-75525000D03*
X85875000Y-78065000D03*
X85875000Y-80605000D03*
X96035000Y-80605000D03*
X96035000Y-78065000D03*
X96035000Y-75525000D03*
X96035000Y-72985000D03*
X96035000Y-70445000D03*
X96035000Y-67905000D03*
X96035000Y-65365000D03*
X96035000Y-62825000D03*
%TD*%
D11*
%TO.C,U-Mx1*%
X54875000Y-62825000D03*
D10*
X54875000Y-65365000D03*
X54875000Y-67905000D03*
X54875000Y-70445000D03*
X54875000Y-72985000D03*
X54875000Y-75525000D03*
X54875000Y-78065000D03*
X54875000Y-80605000D03*
X65035000Y-80605000D03*
X65035000Y-78065000D03*
X65035000Y-75525000D03*
X65035000Y-72985000D03*
X65035000Y-70445000D03*
X65035000Y-67905000D03*
X65035000Y-65365000D03*
X65035000Y-62825000D03*
%TD*%
D24*
%TO.C,Zero*%
X61500000Y-100000000D03*
X61500000Y-102540000D03*
X64040000Y-102540000D03*
X64040000Y-100000000D03*
%TD*%
D25*
%TO.C,Rb1*%
X87330000Y-101650000D03*
D26*
X87330000Y-94030000D03*
%TD*%
D27*
%TO.C,RaTune1*%
X105500000Y-106380000D03*
X110580000Y-103840000D03*
X105500000Y-101300000D03*
%TD*%
D25*
%TO.C,Ra1*%
X100830000Y-99780000D03*
D26*
X100830000Y-107400000D03*
%TD*%
%TO.C,R45*%
X36000000Y-54810000D03*
D25*
X36000000Y-47190000D03*
%TD*%
D26*
%TO.C,R44*%
X40500000Y-54810000D03*
D25*
X40500000Y-47190000D03*
%TD*%
%TO.C,R43*%
X38250000Y-47130000D03*
D26*
X38250000Y-54750000D03*
%TD*%
%TO.C,R42*%
X42750000Y-54810000D03*
D25*
X42750000Y-47190000D03*
%TD*%
D26*
%TO.C,R41*%
X45000000Y-54810000D03*
D25*
X45000000Y-47190000D03*
%TD*%
D26*
%TO.C,R40*%
X49500000Y-54810000D03*
D25*
X49500000Y-47190000D03*
%TD*%
D26*
%TO.C,R39*%
X47250000Y-54810000D03*
D25*
X47250000Y-47190000D03*
%TD*%
D26*
%TO.C,R38*%
X22500000Y-54810000D03*
D25*
X22500000Y-47190000D03*
%TD*%
D26*
%TO.C,R37*%
X24750000Y-54810000D03*
D25*
X24750000Y-47190000D03*
%TD*%
D26*
%TO.C,R36*%
X27000000Y-54810000D03*
D25*
X27000000Y-47190000D03*
%TD*%
D26*
%TO.C,R35*%
X29250000Y-54810000D03*
D25*
X29250000Y-47190000D03*
%TD*%
D26*
%TO.C,R34*%
X33750000Y-54810000D03*
D25*
X33750000Y-47190000D03*
%TD*%
D26*
%TO.C,R33*%
X31500000Y-54810000D03*
D25*
X31500000Y-47190000D03*
%TD*%
D26*
%TO.C,R32*%
X67500000Y-54810000D03*
D25*
X67500000Y-47190000D03*
%TD*%
D26*
%TO.C,R31*%
X72000000Y-54810000D03*
D25*
X72000000Y-47190000D03*
%TD*%
D26*
%TO.C,R30*%
X69750000Y-54810000D03*
D25*
X69750000Y-47190000D03*
%TD*%
D26*
%TO.C,R29*%
X74250000Y-54810000D03*
D25*
X74250000Y-47190000D03*
%TD*%
D26*
%TO.C,R28*%
X76500000Y-54810000D03*
D25*
X76500000Y-47190000D03*
%TD*%
D26*
%TO.C,R27*%
X81000000Y-54810000D03*
D25*
X81000000Y-47190000D03*
%TD*%
D26*
%TO.C,R26*%
X78750000Y-54810000D03*
D25*
X78750000Y-47190000D03*
%TD*%
D26*
%TO.C,R25*%
X51750000Y-54810000D03*
D25*
X51750000Y-47190000D03*
%TD*%
D26*
%TO.C,R24*%
X56250000Y-54810000D03*
D25*
X56250000Y-47190000D03*
%TD*%
D26*
%TO.C,R23*%
X54000000Y-54810000D03*
D25*
X54000000Y-47190000D03*
%TD*%
D26*
%TO.C,R22*%
X58500000Y-54810000D03*
D25*
X58500000Y-47190000D03*
%TD*%
D26*
%TO.C,R21*%
X60750000Y-54810000D03*
D25*
X60750000Y-47190000D03*
%TD*%
D26*
%TO.C,R20*%
X65250000Y-54810000D03*
D25*
X65250000Y-47190000D03*
%TD*%
D26*
%TO.C,R19*%
X63000000Y-54810000D03*
D25*
X63000000Y-47190000D03*
%TD*%
D26*
%TO.C,R18*%
X101250000Y-54810000D03*
D25*
X101250000Y-47190000D03*
%TD*%
D26*
%TO.C,R17*%
X103500000Y-54810000D03*
D25*
X103500000Y-47190000D03*
%TD*%
D26*
%TO.C,R16*%
X105750000Y-54810000D03*
D25*
X105750000Y-47190000D03*
%TD*%
D26*
%TO.C,R15*%
X108000000Y-54810000D03*
D25*
X108000000Y-47190000D03*
%TD*%
D26*
%TO.C,R14*%
X110250000Y-54810000D03*
D25*
X110250000Y-47190000D03*
%TD*%
D26*
%TO.C,R13*%
X112500000Y-54810000D03*
D25*
X112500000Y-47190000D03*
%TD*%
D26*
%TO.C,R12*%
X99000000Y-54810000D03*
D25*
X99000000Y-47190000D03*
%TD*%
%TO.C,R11*%
X83250000Y-47190000D03*
D26*
X83250000Y-54810000D03*
%TD*%
D25*
%TO.C,R10*%
X85500000Y-47190000D03*
D26*
X85500000Y-54810000D03*
%TD*%
D25*
%TO.C,R9*%
X87750000Y-47190000D03*
D26*
X87750000Y-54810000D03*
%TD*%
D25*
%TO.C,R8*%
X90000000Y-47190000D03*
D26*
X90000000Y-54810000D03*
%TD*%
D25*
%TO.C,R7*%
X92250000Y-47190000D03*
D26*
X92250000Y-54810000D03*
%TD*%
%TO.C,R6*%
X96750000Y-54810000D03*
D25*
X96750000Y-47190000D03*
%TD*%
D26*
%TO.C,R5*%
X94500000Y-54810000D03*
D25*
X94500000Y-47190000D03*
%TD*%
%TO.C,R4*%
X78460000Y-107840000D03*
D26*
X86080000Y-107840000D03*
%TD*%
D25*
%TO.C,R3*%
X85520000Y-90090000D03*
D26*
X93140000Y-90090000D03*
%TD*%
D25*
%TO.C,R2*%
X111900000Y-87800000D03*
D26*
X111900000Y-95420000D03*
%TD*%
D25*
%TO.C,R1*%
X76010000Y-89900000D03*
D26*
X68390000Y-89900000D03*
%TD*%
D25*
%TO.C,R-xx1*%
X32900000Y-28600000D03*
D26*
X25280000Y-28600000D03*
%TD*%
D24*
%TO.C,Minute*%
X54500000Y-100000000D03*
X54500000Y-102540000D03*
X57040000Y-102540000D03*
X57040000Y-100000000D03*
%TD*%
%TO.C,Hour*%
X50000000Y-99960000D03*
X50000000Y-102500000D03*
X47460000Y-102500000D03*
X47460000Y-99960000D03*
%TD*%
D15*
%TO.C,Ctime1*%
X95080000Y-107840000D03*
D16*
X97080000Y-107840000D03*
%TD*%
D18*
%TO.C,Cd1*%
X88830000Y-107840000D03*
X91330000Y-107840000D03*
%TD*%
M02*
