%TF.GenerationSoftware,KiCad,Pcbnew,(6.0.2)*%
%TF.CreationDate,2022-08-16T14:22:19+04:00*%
%TF.ProjectId,ClockPCB,436c6f63-6b50-4434-922e-6b696361645f,rev?*%
%TF.SameCoordinates,Original*%
%TF.FileFunction,Legend,Bot*%
%TF.FilePolarity,Positive*%
%FSLAX46Y46*%
G04 Gerber Fmt 4.6, Leading zero omitted, Abs format (unit mm)*
G04 Created by KiCad (PCBNEW (6.0.2)) date 2022-08-16 14:22:19*
%MOMM*%
%LPD*%
G01*
G04 APERTURE LIST*
%ADD10C,0.500000*%
%ADD11C,0.150000*%
%ADD12C,0.120000*%
G04 APERTURE END LIST*
D10*
X106500000Y-59600000D02*
X109000000Y-59600000D01*
D11*
%TO.C,J1*%
X22683333Y-101602380D02*
X22683333Y-102316666D01*
X22730952Y-102459523D01*
X22826190Y-102554761D01*
X22969047Y-102602380D01*
X23064285Y-102602380D01*
X21683333Y-102602380D02*
X22254761Y-102602380D01*
X21969047Y-102602380D02*
X21969047Y-101602380D01*
X22064285Y-101745238D01*
X22159523Y-101840476D01*
X22254761Y-101888095D01*
%TO.C,R-xx1*%
X30685238Y-27052380D02*
X31018571Y-26576190D01*
X31256666Y-27052380D02*
X31256666Y-26052380D01*
X30875714Y-26052380D01*
X30780476Y-26100000D01*
X30732857Y-26147619D01*
X30685238Y-26242857D01*
X30685238Y-26385714D01*
X30732857Y-26480952D01*
X30780476Y-26528571D01*
X30875714Y-26576190D01*
X31256666Y-26576190D01*
X30256666Y-26671428D02*
X29494761Y-26671428D01*
X29113809Y-27052380D02*
X28590000Y-26385714D01*
X29113809Y-26385714D02*
X28590000Y-27052380D01*
X28304285Y-27052380D02*
X27780476Y-26385714D01*
X28304285Y-26385714D02*
X27780476Y-27052380D01*
X26875714Y-27052380D02*
X27447142Y-27052380D01*
X27161428Y-27052380D02*
X27161428Y-26052380D01*
X27256666Y-26195238D01*
X27351904Y-26290476D01*
X27447142Y-26338095D01*
D12*
%TO.C,J1*%
X17000000Y-112500000D02*
X31700000Y-112500000D01*
X17000000Y-103300000D02*
X17000000Y-112500000D01*
X31700000Y-103300000D02*
X29800000Y-103300000D01*
X31700000Y-106000000D02*
X31700000Y-103300000D01*
X31700000Y-112500000D02*
X31700000Y-109900000D01*
X25800000Y-103300000D02*
X17000000Y-103300000D01*
X31900000Y-111650000D02*
X31900000Y-112700000D01*
X30850000Y-112700000D02*
X31900000Y-112700000D01*
%TO.C,R-xx1*%
X27170000Y-29520000D02*
X27170000Y-27680000D01*
X27170000Y-27680000D02*
X31010000Y-27680000D01*
X31010000Y-29520000D02*
X27170000Y-29520000D01*
X26220000Y-28600000D02*
X27170000Y-28600000D01*
X31010000Y-27680000D02*
X31010000Y-29520000D01*
X31960000Y-28600000D02*
X31010000Y-28600000D01*
%TD*%
M02*
