%TF.GenerationSoftware,KiCad,Pcbnew,(6.0.2)*%
%TF.CreationDate,2022-08-16T14:22:19+04:00*%
%TF.ProjectId,ClockPCB,436c6f63-6b50-4434-922e-6b696361645f,rev?*%
%TF.SameCoordinates,Original*%
%TF.FileFunction,Legend,Top*%
%TF.FilePolarity,Positive*%
%FSLAX46Y46*%
G04 Gerber Fmt 4.6, Leading zero omitted, Abs format (unit mm)*
G04 Created by KiCad (PCBNEW (6.0.2)) date 2022-08-16 14:22:19*
%MOMM*%
%LPD*%
G01*
G04 APERTURE LIST*
%ADD10C,0.150000*%
%ADD11C,0.120000*%
G04 APERTURE END LIST*
D10*
%TO.C,U-Hx1*%
X26645476Y-59947380D02*
X26645476Y-60756904D01*
X26693095Y-60852142D01*
X26740714Y-60899761D01*
X26835952Y-60947380D01*
X27026428Y-60947380D01*
X27121666Y-60899761D01*
X27169285Y-60852142D01*
X27216904Y-60756904D01*
X27216904Y-59947380D01*
X27693095Y-60566428D02*
X28455000Y-60566428D01*
X28931190Y-60947380D02*
X28931190Y-59947380D01*
X28931190Y-60423571D02*
X29502619Y-60423571D01*
X29502619Y-60947380D02*
X29502619Y-59947380D01*
X29883571Y-60947380D02*
X30407380Y-60280714D01*
X29883571Y-60280714D02*
X30407380Y-60947380D01*
X31312142Y-60947380D02*
X30740714Y-60947380D01*
X31026428Y-60947380D02*
X31026428Y-59947380D01*
X30931190Y-60090238D01*
X30835952Y-60185476D01*
X30740714Y-60233095D01*
%TO.C,C1*%
X104607142Y-92766666D02*
X104654761Y-92814285D01*
X104702380Y-92957142D01*
X104702380Y-93052380D01*
X104654761Y-93195238D01*
X104559523Y-93290476D01*
X104464285Y-93338095D01*
X104273809Y-93385714D01*
X104130952Y-93385714D01*
X103940476Y-93338095D01*
X103845238Y-93290476D01*
X103750000Y-93195238D01*
X103702380Y-93052380D01*
X103702380Y-92957142D01*
X103750000Y-92814285D01*
X103797619Y-92766666D01*
X104702380Y-91814285D02*
X104702380Y-92385714D01*
X104702380Y-92100000D02*
X103702380Y-92100000D01*
X103845238Y-92195238D01*
X103940476Y-92290476D01*
X103988095Y-92385714D01*
%TO.C,U-DMx1*%
X57142857Y-41452380D02*
X57142857Y-42261904D01*
X57190476Y-42357142D01*
X57238095Y-42404761D01*
X57333333Y-42452380D01*
X57523809Y-42452380D01*
X57619047Y-42404761D01*
X57666666Y-42357142D01*
X57714285Y-42261904D01*
X57714285Y-41452380D01*
X58190476Y-42071428D02*
X58952380Y-42071428D01*
X59428571Y-42452380D02*
X59428571Y-41452380D01*
X59666666Y-41452380D01*
X59809523Y-41500000D01*
X59904761Y-41595238D01*
X59952380Y-41690476D01*
X60000000Y-41880952D01*
X60000000Y-42023809D01*
X59952380Y-42214285D01*
X59904761Y-42309523D01*
X59809523Y-42404761D01*
X59666666Y-42452380D01*
X59428571Y-42452380D01*
X60428571Y-42452380D02*
X60428571Y-41452380D01*
X60761904Y-42166666D01*
X61095238Y-41452380D01*
X61095238Y-42452380D01*
X61476190Y-42452380D02*
X62000000Y-41785714D01*
X61476190Y-41785714D02*
X62000000Y-42452380D01*
X62904761Y-42452380D02*
X62333333Y-42452380D01*
X62619047Y-42452380D02*
X62619047Y-41452380D01*
X62523809Y-41595238D01*
X62428571Y-41690476D01*
X62333333Y-41738095D01*
%TO.C,U-DHx1*%
X26190476Y-41452380D02*
X26190476Y-42261904D01*
X26238095Y-42357142D01*
X26285714Y-42404761D01*
X26380952Y-42452380D01*
X26571428Y-42452380D01*
X26666666Y-42404761D01*
X26714285Y-42357142D01*
X26761904Y-42261904D01*
X26761904Y-41452380D01*
X27238095Y-42071428D02*
X28000000Y-42071428D01*
X28476190Y-42452380D02*
X28476190Y-41452380D01*
X28714285Y-41452380D01*
X28857142Y-41500000D01*
X28952380Y-41595238D01*
X29000000Y-41690476D01*
X29047619Y-41880952D01*
X29047619Y-42023809D01*
X29000000Y-42214285D01*
X28952380Y-42309523D01*
X28857142Y-42404761D01*
X28714285Y-42452380D01*
X28476190Y-42452380D01*
X29476190Y-42452380D02*
X29476190Y-41452380D01*
X29476190Y-41928571D02*
X30047619Y-41928571D01*
X30047619Y-42452380D02*
X30047619Y-41452380D01*
X30428571Y-42452380D02*
X30952380Y-41785714D01*
X30428571Y-41785714D02*
X30952380Y-42452380D01*
X31857142Y-42452380D02*
X31285714Y-42452380D01*
X31571428Y-42452380D02*
X31571428Y-41452380D01*
X31476190Y-41595238D01*
X31380952Y-41690476D01*
X31285714Y-41738095D01*
%TO.C,U-DxH1*%
X41190476Y-41452380D02*
X41190476Y-42261904D01*
X41238095Y-42357142D01*
X41285714Y-42404761D01*
X41380952Y-42452380D01*
X41571428Y-42452380D01*
X41666666Y-42404761D01*
X41714285Y-42357142D01*
X41761904Y-42261904D01*
X41761904Y-41452380D01*
X42238095Y-42071428D02*
X43000000Y-42071428D01*
X43476190Y-42452380D02*
X43476190Y-41452380D01*
X43714285Y-41452380D01*
X43857142Y-41500000D01*
X43952380Y-41595238D01*
X44000000Y-41690476D01*
X44047619Y-41880952D01*
X44047619Y-42023809D01*
X44000000Y-42214285D01*
X43952380Y-42309523D01*
X43857142Y-42404761D01*
X43714285Y-42452380D01*
X43476190Y-42452380D01*
X44380952Y-42452380D02*
X44904761Y-41785714D01*
X44380952Y-41785714D02*
X44904761Y-42452380D01*
X45285714Y-42452380D02*
X45285714Y-41452380D01*
X45285714Y-41928571D02*
X45857142Y-41928571D01*
X45857142Y-42452380D02*
X45857142Y-41452380D01*
X46857142Y-42452380D02*
X46285714Y-42452380D01*
X46571428Y-42452380D02*
X46571428Y-41452380D01*
X46476190Y-41595238D01*
X46380952Y-41690476D01*
X46285714Y-41738095D01*
%TO.C,U-DSx1*%
X88238095Y-41452380D02*
X88238095Y-42261904D01*
X88285714Y-42357142D01*
X88333333Y-42404761D01*
X88428571Y-42452380D01*
X88619047Y-42452380D01*
X88714285Y-42404761D01*
X88761904Y-42357142D01*
X88809523Y-42261904D01*
X88809523Y-41452380D01*
X89285714Y-42071428D02*
X90047619Y-42071428D01*
X90523809Y-42452380D02*
X90523809Y-41452380D01*
X90761904Y-41452380D01*
X90904761Y-41500000D01*
X91000000Y-41595238D01*
X91047619Y-41690476D01*
X91095238Y-41880952D01*
X91095238Y-42023809D01*
X91047619Y-42214285D01*
X91000000Y-42309523D01*
X90904761Y-42404761D01*
X90761904Y-42452380D01*
X90523809Y-42452380D01*
X91476190Y-42404761D02*
X91619047Y-42452380D01*
X91857142Y-42452380D01*
X91952380Y-42404761D01*
X92000000Y-42357142D01*
X92047619Y-42261904D01*
X92047619Y-42166666D01*
X92000000Y-42071428D01*
X91952380Y-42023809D01*
X91857142Y-41976190D01*
X91666666Y-41928571D01*
X91571428Y-41880952D01*
X91523809Y-41833333D01*
X91476190Y-41738095D01*
X91476190Y-41642857D01*
X91523809Y-41547619D01*
X91571428Y-41500000D01*
X91666666Y-41452380D01*
X91904761Y-41452380D01*
X92047619Y-41500000D01*
X92380952Y-42452380D02*
X92904761Y-41785714D01*
X92380952Y-41785714D02*
X92904761Y-42452380D01*
X93809523Y-42452380D02*
X93238095Y-42452380D01*
X93523809Y-42452380D02*
X93523809Y-41452380D01*
X93428571Y-41595238D01*
X93333333Y-41690476D01*
X93238095Y-41738095D01*
%TO.C,U-DxS1*%
X103238095Y-41452380D02*
X103238095Y-42261904D01*
X103285714Y-42357142D01*
X103333333Y-42404761D01*
X103428571Y-42452380D01*
X103619047Y-42452380D01*
X103714285Y-42404761D01*
X103761904Y-42357142D01*
X103809523Y-42261904D01*
X103809523Y-41452380D01*
X104285714Y-42071428D02*
X105047619Y-42071428D01*
X105523809Y-42452380D02*
X105523809Y-41452380D01*
X105761904Y-41452380D01*
X105904761Y-41500000D01*
X106000000Y-41595238D01*
X106047619Y-41690476D01*
X106095238Y-41880952D01*
X106095238Y-42023809D01*
X106047619Y-42214285D01*
X106000000Y-42309523D01*
X105904761Y-42404761D01*
X105761904Y-42452380D01*
X105523809Y-42452380D01*
X106428571Y-42452380D02*
X106952380Y-41785714D01*
X106428571Y-41785714D02*
X106952380Y-42452380D01*
X107285714Y-42404761D02*
X107428571Y-42452380D01*
X107666666Y-42452380D01*
X107761904Y-42404761D01*
X107809523Y-42357142D01*
X107857142Y-42261904D01*
X107857142Y-42166666D01*
X107809523Y-42071428D01*
X107761904Y-42023809D01*
X107666666Y-41976190D01*
X107476190Y-41928571D01*
X107380952Y-41880952D01*
X107333333Y-41833333D01*
X107285714Y-41738095D01*
X107285714Y-41642857D01*
X107333333Y-41547619D01*
X107380952Y-41500000D01*
X107476190Y-41452380D01*
X107714285Y-41452380D01*
X107857142Y-41500000D01*
X108809523Y-42452380D02*
X108238095Y-42452380D01*
X108523809Y-42452380D02*
X108523809Y-41452380D01*
X108428571Y-41595238D01*
X108333333Y-41690476D01*
X108238095Y-41738095D01*
%TO.C,U-DxM1*%
X72142857Y-41452380D02*
X72142857Y-42261904D01*
X72190476Y-42357142D01*
X72238095Y-42404761D01*
X72333333Y-42452380D01*
X72523809Y-42452380D01*
X72619047Y-42404761D01*
X72666666Y-42357142D01*
X72714285Y-42261904D01*
X72714285Y-41452380D01*
X73190476Y-42071428D02*
X73952380Y-42071428D01*
X74428571Y-42452380D02*
X74428571Y-41452380D01*
X74666666Y-41452380D01*
X74809523Y-41500000D01*
X74904761Y-41595238D01*
X74952380Y-41690476D01*
X75000000Y-41880952D01*
X75000000Y-42023809D01*
X74952380Y-42214285D01*
X74904761Y-42309523D01*
X74809523Y-42404761D01*
X74666666Y-42452380D01*
X74428571Y-42452380D01*
X75333333Y-42452380D02*
X75857142Y-41785714D01*
X75333333Y-41785714D02*
X75857142Y-42452380D01*
X76238095Y-42452380D02*
X76238095Y-41452380D01*
X76571428Y-42166666D01*
X76904761Y-41452380D01*
X76904761Y-42452380D01*
X77904761Y-42452380D02*
X77333333Y-42452380D01*
X77619047Y-42452380D02*
X77619047Y-41452380D01*
X77523809Y-41595238D01*
X77428571Y-41690476D01*
X77333333Y-41738095D01*
%TO.C,TimeSet1*%
X70314285Y-92242380D02*
X70885714Y-92242380D01*
X70600000Y-93242380D02*
X70600000Y-92242380D01*
X71219047Y-93242380D02*
X71219047Y-92575714D01*
X71219047Y-92242380D02*
X71171428Y-92290000D01*
X71219047Y-92337619D01*
X71266666Y-92290000D01*
X71219047Y-92242380D01*
X71219047Y-92337619D01*
X71695238Y-93242380D02*
X71695238Y-92575714D01*
X71695238Y-92670952D02*
X71742857Y-92623333D01*
X71838095Y-92575714D01*
X71980952Y-92575714D01*
X72076190Y-92623333D01*
X72123809Y-92718571D01*
X72123809Y-93242380D01*
X72123809Y-92718571D02*
X72171428Y-92623333D01*
X72266666Y-92575714D01*
X72409523Y-92575714D01*
X72504761Y-92623333D01*
X72552380Y-92718571D01*
X72552380Y-93242380D01*
X73409523Y-93194761D02*
X73314285Y-93242380D01*
X73123809Y-93242380D01*
X73028571Y-93194761D01*
X72980952Y-93099523D01*
X72980952Y-92718571D01*
X73028571Y-92623333D01*
X73123809Y-92575714D01*
X73314285Y-92575714D01*
X73409523Y-92623333D01*
X73457142Y-92718571D01*
X73457142Y-92813809D01*
X72980952Y-92909047D01*
X73838095Y-93194761D02*
X73980952Y-93242380D01*
X74219047Y-93242380D01*
X74314285Y-93194761D01*
X74361904Y-93147142D01*
X74409523Y-93051904D01*
X74409523Y-92956666D01*
X74361904Y-92861428D01*
X74314285Y-92813809D01*
X74219047Y-92766190D01*
X74028571Y-92718571D01*
X73933333Y-92670952D01*
X73885714Y-92623333D01*
X73838095Y-92528095D01*
X73838095Y-92432857D01*
X73885714Y-92337619D01*
X73933333Y-92290000D01*
X74028571Y-92242380D01*
X74266666Y-92242380D01*
X74409523Y-92290000D01*
X75219047Y-93194761D02*
X75123809Y-93242380D01*
X74933333Y-93242380D01*
X74838095Y-93194761D01*
X74790476Y-93099523D01*
X74790476Y-92718571D01*
X74838095Y-92623333D01*
X74933333Y-92575714D01*
X75123809Y-92575714D01*
X75219047Y-92623333D01*
X75266666Y-92718571D01*
X75266666Y-92813809D01*
X74790476Y-92909047D01*
X75552380Y-92575714D02*
X75933333Y-92575714D01*
X75695238Y-92242380D02*
X75695238Y-93099523D01*
X75742857Y-93194761D01*
X75838095Y-93242380D01*
X75933333Y-93242380D01*
X76790476Y-93242380D02*
X76219047Y-93242380D01*
X76504761Y-93242380D02*
X76504761Y-92242380D01*
X76409523Y-92385238D01*
X76314285Y-92480476D01*
X76219047Y-92528095D01*
%TO.C,Display1*%
X78396428Y-93252380D02*
X78396428Y-92252380D01*
X78634523Y-92252380D01*
X78777380Y-92300000D01*
X78872619Y-92395238D01*
X78920238Y-92490476D01*
X78967857Y-92680952D01*
X78967857Y-92823809D01*
X78920238Y-93014285D01*
X78872619Y-93109523D01*
X78777380Y-93204761D01*
X78634523Y-93252380D01*
X78396428Y-93252380D01*
X79396428Y-93252380D02*
X79396428Y-92585714D01*
X79396428Y-92252380D02*
X79348809Y-92300000D01*
X79396428Y-92347619D01*
X79444047Y-92300000D01*
X79396428Y-92252380D01*
X79396428Y-92347619D01*
X79825000Y-93204761D02*
X79920238Y-93252380D01*
X80110714Y-93252380D01*
X80205952Y-93204761D01*
X80253571Y-93109523D01*
X80253571Y-93061904D01*
X80205952Y-92966666D01*
X80110714Y-92919047D01*
X79967857Y-92919047D01*
X79872619Y-92871428D01*
X79825000Y-92776190D01*
X79825000Y-92728571D01*
X79872619Y-92633333D01*
X79967857Y-92585714D01*
X80110714Y-92585714D01*
X80205952Y-92633333D01*
X80682142Y-92585714D02*
X80682142Y-93585714D01*
X80682142Y-92633333D02*
X80777380Y-92585714D01*
X80967857Y-92585714D01*
X81063095Y-92633333D01*
X81110714Y-92680952D01*
X81158333Y-92776190D01*
X81158333Y-93061904D01*
X81110714Y-93157142D01*
X81063095Y-93204761D01*
X80967857Y-93252380D01*
X80777380Y-93252380D01*
X80682142Y-93204761D01*
X81729761Y-93252380D02*
X81634523Y-93204761D01*
X81586904Y-93109523D01*
X81586904Y-92252380D01*
X82539285Y-93252380D02*
X82539285Y-92728571D01*
X82491666Y-92633333D01*
X82396428Y-92585714D01*
X82205952Y-92585714D01*
X82110714Y-92633333D01*
X82539285Y-93204761D02*
X82444047Y-93252380D01*
X82205952Y-93252380D01*
X82110714Y-93204761D01*
X82063095Y-93109523D01*
X82063095Y-93014285D01*
X82110714Y-92919047D01*
X82205952Y-92871428D01*
X82444047Y-92871428D01*
X82539285Y-92823809D01*
X82920238Y-92585714D02*
X83158333Y-93252380D01*
X83396428Y-92585714D02*
X83158333Y-93252380D01*
X83063095Y-93490476D01*
X83015476Y-93538095D01*
X82920238Y-93585714D01*
X84301190Y-93252380D02*
X83729761Y-93252380D01*
X84015476Y-93252380D02*
X84015476Y-92252380D01*
X83920238Y-92395238D01*
X83825000Y-92490476D01*
X83729761Y-92538095D01*
%TO.C,U2*%
X93328095Y-91412380D02*
X93328095Y-92221904D01*
X93375714Y-92317142D01*
X93423333Y-92364761D01*
X93518571Y-92412380D01*
X93709047Y-92412380D01*
X93804285Y-92364761D01*
X93851904Y-92317142D01*
X93899523Y-92221904D01*
X93899523Y-91412380D01*
X94328095Y-91507619D02*
X94375714Y-91460000D01*
X94470952Y-91412380D01*
X94709047Y-91412380D01*
X94804285Y-91460000D01*
X94851904Y-91507619D01*
X94899523Y-91602857D01*
X94899523Y-91698095D01*
X94851904Y-91840952D01*
X94280476Y-92412380D01*
X94899523Y-92412380D01*
%TO.C,U1*%
X40402380Y-95271904D02*
X41211904Y-95271904D01*
X41307142Y-95224285D01*
X41354761Y-95176666D01*
X41402380Y-95081428D01*
X41402380Y-94890952D01*
X41354761Y-94795714D01*
X41307142Y-94748095D01*
X41211904Y-94700476D01*
X40402380Y-94700476D01*
X41402380Y-93700476D02*
X41402380Y-94271904D01*
X41402380Y-93986190D02*
X40402380Y-93986190D01*
X40545238Y-94081428D01*
X40640476Y-94176666D01*
X40688095Y-94271904D01*
%TO.C,U-xS1*%
X103943095Y-59947380D02*
X103943095Y-60756904D01*
X103990714Y-60852142D01*
X104038333Y-60899761D01*
X104133571Y-60947380D01*
X104324047Y-60947380D01*
X104419285Y-60899761D01*
X104466904Y-60852142D01*
X104514523Y-60756904D01*
X104514523Y-59947380D01*
X104990714Y-60566428D02*
X105752619Y-60566428D01*
X106133571Y-60947380D02*
X106657380Y-60280714D01*
X106133571Y-60280714D02*
X106657380Y-60947380D01*
X106990714Y-60899761D02*
X107133571Y-60947380D01*
X107371666Y-60947380D01*
X107466904Y-60899761D01*
X107514523Y-60852142D01*
X107562142Y-60756904D01*
X107562142Y-60661666D01*
X107514523Y-60566428D01*
X107466904Y-60518809D01*
X107371666Y-60471190D01*
X107181190Y-60423571D01*
X107085952Y-60375952D01*
X107038333Y-60328333D01*
X106990714Y-60233095D01*
X106990714Y-60137857D01*
X107038333Y-60042619D01*
X107085952Y-59995000D01*
X107181190Y-59947380D01*
X107419285Y-59947380D01*
X107562142Y-59995000D01*
X108514523Y-60947380D02*
X107943095Y-60947380D01*
X108228809Y-60947380D02*
X108228809Y-59947380D01*
X108133571Y-60090238D01*
X108038333Y-60185476D01*
X107943095Y-60233095D01*
%TO.C,U-xM1*%
X72597857Y-59947380D02*
X72597857Y-60756904D01*
X72645476Y-60852142D01*
X72693095Y-60899761D01*
X72788333Y-60947380D01*
X72978809Y-60947380D01*
X73074047Y-60899761D01*
X73121666Y-60852142D01*
X73169285Y-60756904D01*
X73169285Y-59947380D01*
X73645476Y-60566428D02*
X74407380Y-60566428D01*
X74788333Y-60947380D02*
X75312142Y-60280714D01*
X74788333Y-60280714D02*
X75312142Y-60947380D01*
X75693095Y-60947380D02*
X75693095Y-59947380D01*
X76026428Y-60661666D01*
X76359761Y-59947380D01*
X76359761Y-60947380D01*
X77359761Y-60947380D02*
X76788333Y-60947380D01*
X77074047Y-60947380D02*
X77074047Y-59947380D01*
X76978809Y-60090238D01*
X76883571Y-60185476D01*
X76788333Y-60233095D01*
%TO.C,U-xH1*%
X41645476Y-59947380D02*
X41645476Y-60756904D01*
X41693095Y-60852142D01*
X41740714Y-60899761D01*
X41835952Y-60947380D01*
X42026428Y-60947380D01*
X42121666Y-60899761D01*
X42169285Y-60852142D01*
X42216904Y-60756904D01*
X42216904Y-59947380D01*
X42693095Y-60566428D02*
X43455000Y-60566428D01*
X43835952Y-60947380D02*
X44359761Y-60280714D01*
X43835952Y-60280714D02*
X44359761Y-60947380D01*
X44740714Y-60947380D02*
X44740714Y-59947380D01*
X44740714Y-60423571D02*
X45312142Y-60423571D01*
X45312142Y-60947380D02*
X45312142Y-59947380D01*
X46312142Y-60947380D02*
X45740714Y-60947380D01*
X46026428Y-60947380D02*
X46026428Y-59947380D01*
X45931190Y-60090238D01*
X45835952Y-60185476D01*
X45740714Y-60233095D01*
%TO.C,U-Sx1*%
X88693095Y-59947380D02*
X88693095Y-60756904D01*
X88740714Y-60852142D01*
X88788333Y-60899761D01*
X88883571Y-60947380D01*
X89074047Y-60947380D01*
X89169285Y-60899761D01*
X89216904Y-60852142D01*
X89264523Y-60756904D01*
X89264523Y-59947380D01*
X89740714Y-60566428D02*
X90502619Y-60566428D01*
X90931190Y-60899761D02*
X91074047Y-60947380D01*
X91312142Y-60947380D01*
X91407380Y-60899761D01*
X91455000Y-60852142D01*
X91502619Y-60756904D01*
X91502619Y-60661666D01*
X91455000Y-60566428D01*
X91407380Y-60518809D01*
X91312142Y-60471190D01*
X91121666Y-60423571D01*
X91026428Y-60375952D01*
X90978809Y-60328333D01*
X90931190Y-60233095D01*
X90931190Y-60137857D01*
X90978809Y-60042619D01*
X91026428Y-59995000D01*
X91121666Y-59947380D01*
X91359761Y-59947380D01*
X91502619Y-59995000D01*
X91835952Y-60947380D02*
X92359761Y-60280714D01*
X91835952Y-60280714D02*
X92359761Y-60947380D01*
X93264523Y-60947380D02*
X92693095Y-60947380D01*
X92978809Y-60947380D02*
X92978809Y-59947380D01*
X92883571Y-60090238D01*
X92788333Y-60185476D01*
X92693095Y-60233095D01*
%TO.C,U-Mx1*%
X57597857Y-59947380D02*
X57597857Y-60756904D01*
X57645476Y-60852142D01*
X57693095Y-60899761D01*
X57788333Y-60947380D01*
X57978809Y-60947380D01*
X58074047Y-60899761D01*
X58121666Y-60852142D01*
X58169285Y-60756904D01*
X58169285Y-59947380D01*
X58645476Y-60566428D02*
X59407380Y-60566428D01*
X59883571Y-60947380D02*
X59883571Y-59947380D01*
X60216904Y-60661666D01*
X60550238Y-59947380D01*
X60550238Y-60947380D01*
X60931190Y-60947380D02*
X61455000Y-60280714D01*
X60931190Y-60280714D02*
X61455000Y-60947380D01*
X62359761Y-60947380D02*
X61788333Y-60947380D01*
X62074047Y-60947380D02*
X62074047Y-59947380D01*
X61978809Y-60090238D01*
X61883571Y-60185476D01*
X61788333Y-60233095D01*
%TO.C,Reset1*%
X61075714Y-97492380D02*
X60742380Y-97016190D01*
X60504285Y-97492380D02*
X60504285Y-96492380D01*
X60885238Y-96492380D01*
X60980476Y-96540000D01*
X61028095Y-96587619D01*
X61075714Y-96682857D01*
X61075714Y-96825714D01*
X61028095Y-96920952D01*
X60980476Y-96968571D01*
X60885238Y-97016190D01*
X60504285Y-97016190D01*
X61885238Y-97444761D02*
X61790000Y-97492380D01*
X61599523Y-97492380D01*
X61504285Y-97444761D01*
X61456666Y-97349523D01*
X61456666Y-96968571D01*
X61504285Y-96873333D01*
X61599523Y-96825714D01*
X61790000Y-96825714D01*
X61885238Y-96873333D01*
X61932857Y-96968571D01*
X61932857Y-97063809D01*
X61456666Y-97159047D01*
X62313809Y-97444761D02*
X62409047Y-97492380D01*
X62599523Y-97492380D01*
X62694761Y-97444761D01*
X62742380Y-97349523D01*
X62742380Y-97301904D01*
X62694761Y-97206666D01*
X62599523Y-97159047D01*
X62456666Y-97159047D01*
X62361428Y-97111428D01*
X62313809Y-97016190D01*
X62313809Y-96968571D01*
X62361428Y-96873333D01*
X62456666Y-96825714D01*
X62599523Y-96825714D01*
X62694761Y-96873333D01*
X63551904Y-97444761D02*
X63456666Y-97492380D01*
X63266190Y-97492380D01*
X63170952Y-97444761D01*
X63123333Y-97349523D01*
X63123333Y-96968571D01*
X63170952Y-96873333D01*
X63266190Y-96825714D01*
X63456666Y-96825714D01*
X63551904Y-96873333D01*
X63599523Y-96968571D01*
X63599523Y-97063809D01*
X63123333Y-97159047D01*
X63885238Y-96825714D02*
X64266190Y-96825714D01*
X64028095Y-96492380D02*
X64028095Y-97349523D01*
X64075714Y-97444761D01*
X64170952Y-97492380D01*
X64266190Y-97492380D01*
X65123333Y-97492380D02*
X64551904Y-97492380D01*
X64837619Y-97492380D02*
X64837619Y-96492380D01*
X64742380Y-96635238D01*
X64647142Y-96730476D01*
X64551904Y-96778095D01*
%TO.C,Rb1*%
X87782380Y-98709047D02*
X87306190Y-99042380D01*
X87782380Y-99280476D02*
X86782380Y-99280476D01*
X86782380Y-98899523D01*
X86830000Y-98804285D01*
X86877619Y-98756666D01*
X86972857Y-98709047D01*
X87115714Y-98709047D01*
X87210952Y-98756666D01*
X87258571Y-98804285D01*
X87306190Y-98899523D01*
X87306190Y-99280476D01*
X87782380Y-98280476D02*
X86782380Y-98280476D01*
X87163333Y-98280476D02*
X87115714Y-98185238D01*
X87115714Y-97994761D01*
X87163333Y-97899523D01*
X87210952Y-97851904D01*
X87306190Y-97804285D01*
X87591904Y-97804285D01*
X87687142Y-97851904D01*
X87734761Y-97899523D01*
X87782380Y-97994761D01*
X87782380Y-98185238D01*
X87734761Y-98280476D01*
X87782380Y-96851904D02*
X87782380Y-97423333D01*
X87782380Y-97137619D02*
X86782380Y-97137619D01*
X86925238Y-97232857D01*
X87020476Y-97328095D01*
X87068095Y-97423333D01*
%TO.C,RaTune1*%
X105821666Y-98277380D02*
X105488333Y-97801190D01*
X105250238Y-98277380D02*
X105250238Y-97277380D01*
X105631190Y-97277380D01*
X105726428Y-97325000D01*
X105774047Y-97372619D01*
X105821666Y-97467857D01*
X105821666Y-97610714D01*
X105774047Y-97705952D01*
X105726428Y-97753571D01*
X105631190Y-97801190D01*
X105250238Y-97801190D01*
X106678809Y-98277380D02*
X106678809Y-97753571D01*
X106631190Y-97658333D01*
X106535952Y-97610714D01*
X106345476Y-97610714D01*
X106250238Y-97658333D01*
X106678809Y-98229761D02*
X106583571Y-98277380D01*
X106345476Y-98277380D01*
X106250238Y-98229761D01*
X106202619Y-98134523D01*
X106202619Y-98039285D01*
X106250238Y-97944047D01*
X106345476Y-97896428D01*
X106583571Y-97896428D01*
X106678809Y-97848809D01*
X107012142Y-97277380D02*
X107583571Y-97277380D01*
X107297857Y-98277380D02*
X107297857Y-97277380D01*
X108345476Y-97610714D02*
X108345476Y-98277380D01*
X107916904Y-97610714D02*
X107916904Y-98134523D01*
X107964523Y-98229761D01*
X108059761Y-98277380D01*
X108202619Y-98277380D01*
X108297857Y-98229761D01*
X108345476Y-98182142D01*
X108821666Y-97610714D02*
X108821666Y-98277380D01*
X108821666Y-97705952D02*
X108869285Y-97658333D01*
X108964523Y-97610714D01*
X109107380Y-97610714D01*
X109202619Y-97658333D01*
X109250238Y-97753571D01*
X109250238Y-98277380D01*
X110107380Y-98229761D02*
X110012142Y-98277380D01*
X109821666Y-98277380D01*
X109726428Y-98229761D01*
X109678809Y-98134523D01*
X109678809Y-97753571D01*
X109726428Y-97658333D01*
X109821666Y-97610714D01*
X110012142Y-97610714D01*
X110107380Y-97658333D01*
X110155000Y-97753571D01*
X110155000Y-97848809D01*
X109678809Y-97944047D01*
X111107380Y-98277380D02*
X110535952Y-98277380D01*
X110821666Y-98277380D02*
X110821666Y-97277380D01*
X110726428Y-97420238D01*
X110631190Y-97515476D01*
X110535952Y-97563095D01*
%TO.C,Ra1*%
X101282380Y-104209047D02*
X100806190Y-104542380D01*
X101282380Y-104780476D02*
X100282380Y-104780476D01*
X100282380Y-104399523D01*
X100330000Y-104304285D01*
X100377619Y-104256666D01*
X100472857Y-104209047D01*
X100615714Y-104209047D01*
X100710952Y-104256666D01*
X100758571Y-104304285D01*
X100806190Y-104399523D01*
X100806190Y-104780476D01*
X101282380Y-103351904D02*
X100758571Y-103351904D01*
X100663333Y-103399523D01*
X100615714Y-103494761D01*
X100615714Y-103685238D01*
X100663333Y-103780476D01*
X101234761Y-103351904D02*
X101282380Y-103447142D01*
X101282380Y-103685238D01*
X101234761Y-103780476D01*
X101139523Y-103828095D01*
X101044285Y-103828095D01*
X100949047Y-103780476D01*
X100901428Y-103685238D01*
X100901428Y-103447142D01*
X100853809Y-103351904D01*
X101282380Y-102351904D02*
X101282380Y-102923333D01*
X101282380Y-102637619D02*
X100282380Y-102637619D01*
X100425238Y-102732857D01*
X100520476Y-102828095D01*
X100568095Y-102923333D01*
%TO.C,R45*%
X36452380Y-51642857D02*
X35976190Y-51976190D01*
X36452380Y-52214285D02*
X35452380Y-52214285D01*
X35452380Y-51833333D01*
X35500000Y-51738095D01*
X35547619Y-51690476D01*
X35642857Y-51642857D01*
X35785714Y-51642857D01*
X35880952Y-51690476D01*
X35928571Y-51738095D01*
X35976190Y-51833333D01*
X35976190Y-52214285D01*
X35785714Y-50785714D02*
X36452380Y-50785714D01*
X35404761Y-51023809D02*
X36119047Y-51261904D01*
X36119047Y-50642857D01*
X35452380Y-49785714D02*
X35452380Y-50261904D01*
X35928571Y-50309523D01*
X35880952Y-50261904D01*
X35833333Y-50166666D01*
X35833333Y-49928571D01*
X35880952Y-49833333D01*
X35928571Y-49785714D01*
X36023809Y-49738095D01*
X36261904Y-49738095D01*
X36357142Y-49785714D01*
X36404761Y-49833333D01*
X36452380Y-49928571D01*
X36452380Y-50166666D01*
X36404761Y-50261904D01*
X36357142Y-50309523D01*
%TO.C,R44*%
X40952380Y-51452857D02*
X40476190Y-51786190D01*
X40952380Y-52024285D02*
X39952380Y-52024285D01*
X39952380Y-51643333D01*
X40000000Y-51548095D01*
X40047619Y-51500476D01*
X40142857Y-51452857D01*
X40285714Y-51452857D01*
X40380952Y-51500476D01*
X40428571Y-51548095D01*
X40476190Y-51643333D01*
X40476190Y-52024285D01*
X40285714Y-50595714D02*
X40952380Y-50595714D01*
X39904761Y-50833809D02*
X40619047Y-51071904D01*
X40619047Y-50452857D01*
X40285714Y-49643333D02*
X40952380Y-49643333D01*
X39904761Y-49881428D02*
X40619047Y-50119523D01*
X40619047Y-49500476D01*
%TO.C,R43*%
X38702380Y-51582857D02*
X38226190Y-51916190D01*
X38702380Y-52154285D02*
X37702380Y-52154285D01*
X37702380Y-51773333D01*
X37750000Y-51678095D01*
X37797619Y-51630476D01*
X37892857Y-51582857D01*
X38035714Y-51582857D01*
X38130952Y-51630476D01*
X38178571Y-51678095D01*
X38226190Y-51773333D01*
X38226190Y-52154285D01*
X38035714Y-50725714D02*
X38702380Y-50725714D01*
X37654761Y-50963809D02*
X38369047Y-51201904D01*
X38369047Y-50582857D01*
X37702380Y-50297142D02*
X37702380Y-49678095D01*
X38083333Y-50011428D01*
X38083333Y-49868571D01*
X38130952Y-49773333D01*
X38178571Y-49725714D01*
X38273809Y-49678095D01*
X38511904Y-49678095D01*
X38607142Y-49725714D01*
X38654761Y-49773333D01*
X38702380Y-49868571D01*
X38702380Y-50154285D01*
X38654761Y-50249523D01*
X38607142Y-50297142D01*
%TO.C,R42*%
X43202380Y-51642857D02*
X42726190Y-51976190D01*
X43202380Y-52214285D02*
X42202380Y-52214285D01*
X42202380Y-51833333D01*
X42250000Y-51738095D01*
X42297619Y-51690476D01*
X42392857Y-51642857D01*
X42535714Y-51642857D01*
X42630952Y-51690476D01*
X42678571Y-51738095D01*
X42726190Y-51833333D01*
X42726190Y-52214285D01*
X42535714Y-50785714D02*
X43202380Y-50785714D01*
X42154761Y-51023809D02*
X42869047Y-51261904D01*
X42869047Y-50642857D01*
X42297619Y-50309523D02*
X42250000Y-50261904D01*
X42202380Y-50166666D01*
X42202380Y-49928571D01*
X42250000Y-49833333D01*
X42297619Y-49785714D01*
X42392857Y-49738095D01*
X42488095Y-49738095D01*
X42630952Y-49785714D01*
X43202380Y-50357142D01*
X43202380Y-49738095D01*
%TO.C,R41*%
X45452380Y-51642857D02*
X44976190Y-51976190D01*
X45452380Y-52214285D02*
X44452380Y-52214285D01*
X44452380Y-51833333D01*
X44500000Y-51738095D01*
X44547619Y-51690476D01*
X44642857Y-51642857D01*
X44785714Y-51642857D01*
X44880952Y-51690476D01*
X44928571Y-51738095D01*
X44976190Y-51833333D01*
X44976190Y-52214285D01*
X44785714Y-50785714D02*
X45452380Y-50785714D01*
X44404761Y-51023809D02*
X45119047Y-51261904D01*
X45119047Y-50642857D01*
X45452380Y-49738095D02*
X45452380Y-50309523D01*
X45452380Y-50023809D02*
X44452380Y-50023809D01*
X44595238Y-50119047D01*
X44690476Y-50214285D01*
X44738095Y-50309523D01*
%TO.C,R40*%
X49952380Y-51642857D02*
X49476190Y-51976190D01*
X49952380Y-52214285D02*
X48952380Y-52214285D01*
X48952380Y-51833333D01*
X49000000Y-51738095D01*
X49047619Y-51690476D01*
X49142857Y-51642857D01*
X49285714Y-51642857D01*
X49380952Y-51690476D01*
X49428571Y-51738095D01*
X49476190Y-51833333D01*
X49476190Y-52214285D01*
X49285714Y-50785714D02*
X49952380Y-50785714D01*
X48904761Y-51023809D02*
X49619047Y-51261904D01*
X49619047Y-50642857D01*
X48952380Y-50071428D02*
X48952380Y-49976190D01*
X49000000Y-49880952D01*
X49047619Y-49833333D01*
X49142857Y-49785714D01*
X49333333Y-49738095D01*
X49571428Y-49738095D01*
X49761904Y-49785714D01*
X49857142Y-49833333D01*
X49904761Y-49880952D01*
X49952380Y-49976190D01*
X49952380Y-50071428D01*
X49904761Y-50166666D01*
X49857142Y-50214285D01*
X49761904Y-50261904D01*
X49571428Y-50309523D01*
X49333333Y-50309523D01*
X49142857Y-50261904D01*
X49047619Y-50214285D01*
X49000000Y-50166666D01*
X48952380Y-50071428D01*
%TO.C,R39*%
X47702380Y-51642857D02*
X47226190Y-51976190D01*
X47702380Y-52214285D02*
X46702380Y-52214285D01*
X46702380Y-51833333D01*
X46750000Y-51738095D01*
X46797619Y-51690476D01*
X46892857Y-51642857D01*
X47035714Y-51642857D01*
X47130952Y-51690476D01*
X47178571Y-51738095D01*
X47226190Y-51833333D01*
X47226190Y-52214285D01*
X46702380Y-51309523D02*
X46702380Y-50690476D01*
X47083333Y-51023809D01*
X47083333Y-50880952D01*
X47130952Y-50785714D01*
X47178571Y-50738095D01*
X47273809Y-50690476D01*
X47511904Y-50690476D01*
X47607142Y-50738095D01*
X47654761Y-50785714D01*
X47702380Y-50880952D01*
X47702380Y-51166666D01*
X47654761Y-51261904D01*
X47607142Y-51309523D01*
X47702380Y-50214285D02*
X47702380Y-50023809D01*
X47654761Y-49928571D01*
X47607142Y-49880952D01*
X47464285Y-49785714D01*
X47273809Y-49738095D01*
X46892857Y-49738095D01*
X46797619Y-49785714D01*
X46750000Y-49833333D01*
X46702380Y-49928571D01*
X46702380Y-50119047D01*
X46750000Y-50214285D01*
X46797619Y-50261904D01*
X46892857Y-50309523D01*
X47130952Y-50309523D01*
X47226190Y-50261904D01*
X47273809Y-50214285D01*
X47321428Y-50119047D01*
X47321428Y-49928571D01*
X47273809Y-49833333D01*
X47226190Y-49785714D01*
X47130952Y-49738095D01*
%TO.C,R38*%
X22982380Y-51702857D02*
X22506190Y-52036190D01*
X22982380Y-52274285D02*
X21982380Y-52274285D01*
X21982380Y-51893333D01*
X22030000Y-51798095D01*
X22077619Y-51750476D01*
X22172857Y-51702857D01*
X22315714Y-51702857D01*
X22410952Y-51750476D01*
X22458571Y-51798095D01*
X22506190Y-51893333D01*
X22506190Y-52274285D01*
X21982380Y-51369523D02*
X21982380Y-50750476D01*
X22363333Y-51083809D01*
X22363333Y-50940952D01*
X22410952Y-50845714D01*
X22458571Y-50798095D01*
X22553809Y-50750476D01*
X22791904Y-50750476D01*
X22887142Y-50798095D01*
X22934761Y-50845714D01*
X22982380Y-50940952D01*
X22982380Y-51226666D01*
X22934761Y-51321904D01*
X22887142Y-51369523D01*
X22410952Y-50179047D02*
X22363333Y-50274285D01*
X22315714Y-50321904D01*
X22220476Y-50369523D01*
X22172857Y-50369523D01*
X22077619Y-50321904D01*
X22030000Y-50274285D01*
X21982380Y-50179047D01*
X21982380Y-49988571D01*
X22030000Y-49893333D01*
X22077619Y-49845714D01*
X22172857Y-49798095D01*
X22220476Y-49798095D01*
X22315714Y-49845714D01*
X22363333Y-49893333D01*
X22410952Y-49988571D01*
X22410952Y-50179047D01*
X22458571Y-50274285D01*
X22506190Y-50321904D01*
X22601428Y-50369523D01*
X22791904Y-50369523D01*
X22887142Y-50321904D01*
X22934761Y-50274285D01*
X22982380Y-50179047D01*
X22982380Y-49988571D01*
X22934761Y-49893333D01*
X22887142Y-49845714D01*
X22791904Y-49798095D01*
X22601428Y-49798095D01*
X22506190Y-49845714D01*
X22458571Y-49893333D01*
X22410952Y-49988571D01*
%TO.C,R37*%
X25182380Y-51642857D02*
X24706190Y-51976190D01*
X25182380Y-52214285D02*
X24182380Y-52214285D01*
X24182380Y-51833333D01*
X24230000Y-51738095D01*
X24277619Y-51690476D01*
X24372857Y-51642857D01*
X24515714Y-51642857D01*
X24610952Y-51690476D01*
X24658571Y-51738095D01*
X24706190Y-51833333D01*
X24706190Y-52214285D01*
X24182380Y-51309523D02*
X24182380Y-50690476D01*
X24563333Y-51023809D01*
X24563333Y-50880952D01*
X24610952Y-50785714D01*
X24658571Y-50738095D01*
X24753809Y-50690476D01*
X24991904Y-50690476D01*
X25087142Y-50738095D01*
X25134761Y-50785714D01*
X25182380Y-50880952D01*
X25182380Y-51166666D01*
X25134761Y-51261904D01*
X25087142Y-51309523D01*
X24182380Y-50357142D02*
X24182380Y-49690476D01*
X25182380Y-50119047D01*
%TO.C,R36*%
X27382380Y-51572857D02*
X26906190Y-51906190D01*
X27382380Y-52144285D02*
X26382380Y-52144285D01*
X26382380Y-51763333D01*
X26430000Y-51668095D01*
X26477619Y-51620476D01*
X26572857Y-51572857D01*
X26715714Y-51572857D01*
X26810952Y-51620476D01*
X26858571Y-51668095D01*
X26906190Y-51763333D01*
X26906190Y-52144285D01*
X26382380Y-51239523D02*
X26382380Y-50620476D01*
X26763333Y-50953809D01*
X26763333Y-50810952D01*
X26810952Y-50715714D01*
X26858571Y-50668095D01*
X26953809Y-50620476D01*
X27191904Y-50620476D01*
X27287142Y-50668095D01*
X27334761Y-50715714D01*
X27382380Y-50810952D01*
X27382380Y-51096666D01*
X27334761Y-51191904D01*
X27287142Y-51239523D01*
X26382380Y-49763333D02*
X26382380Y-49953809D01*
X26430000Y-50049047D01*
X26477619Y-50096666D01*
X26620476Y-50191904D01*
X26810952Y-50239523D01*
X27191904Y-50239523D01*
X27287142Y-50191904D01*
X27334761Y-50144285D01*
X27382380Y-50049047D01*
X27382380Y-49858571D01*
X27334761Y-49763333D01*
X27287142Y-49715714D01*
X27191904Y-49668095D01*
X26953809Y-49668095D01*
X26858571Y-49715714D01*
X26810952Y-49763333D01*
X26763333Y-49858571D01*
X26763333Y-50049047D01*
X26810952Y-50144285D01*
X26858571Y-50191904D01*
X26953809Y-50239523D01*
%TO.C,R35*%
X29732380Y-51782857D02*
X29256190Y-52116190D01*
X29732380Y-52354285D02*
X28732380Y-52354285D01*
X28732380Y-51973333D01*
X28780000Y-51878095D01*
X28827619Y-51830476D01*
X28922857Y-51782857D01*
X29065714Y-51782857D01*
X29160952Y-51830476D01*
X29208571Y-51878095D01*
X29256190Y-51973333D01*
X29256190Y-52354285D01*
X28732380Y-51449523D02*
X28732380Y-50830476D01*
X29113333Y-51163809D01*
X29113333Y-51020952D01*
X29160952Y-50925714D01*
X29208571Y-50878095D01*
X29303809Y-50830476D01*
X29541904Y-50830476D01*
X29637142Y-50878095D01*
X29684761Y-50925714D01*
X29732380Y-51020952D01*
X29732380Y-51306666D01*
X29684761Y-51401904D01*
X29637142Y-51449523D01*
X28732380Y-49925714D02*
X28732380Y-50401904D01*
X29208571Y-50449523D01*
X29160952Y-50401904D01*
X29113333Y-50306666D01*
X29113333Y-50068571D01*
X29160952Y-49973333D01*
X29208571Y-49925714D01*
X29303809Y-49878095D01*
X29541904Y-49878095D01*
X29637142Y-49925714D01*
X29684761Y-49973333D01*
X29732380Y-50068571D01*
X29732380Y-50306666D01*
X29684761Y-50401904D01*
X29637142Y-50449523D01*
%TO.C,R34*%
X34202380Y-51642857D02*
X33726190Y-51976190D01*
X34202380Y-52214285D02*
X33202380Y-52214285D01*
X33202380Y-51833333D01*
X33250000Y-51738095D01*
X33297619Y-51690476D01*
X33392857Y-51642857D01*
X33535714Y-51642857D01*
X33630952Y-51690476D01*
X33678571Y-51738095D01*
X33726190Y-51833333D01*
X33726190Y-52214285D01*
X33202380Y-51309523D02*
X33202380Y-50690476D01*
X33583333Y-51023809D01*
X33583333Y-50880952D01*
X33630952Y-50785714D01*
X33678571Y-50738095D01*
X33773809Y-50690476D01*
X34011904Y-50690476D01*
X34107142Y-50738095D01*
X34154761Y-50785714D01*
X34202380Y-50880952D01*
X34202380Y-51166666D01*
X34154761Y-51261904D01*
X34107142Y-51309523D01*
X33535714Y-49833333D02*
X34202380Y-49833333D01*
X33154761Y-50071428D02*
X33869047Y-50309523D01*
X33869047Y-49690476D01*
%TO.C,R33*%
X31982380Y-51752857D02*
X31506190Y-52086190D01*
X31982380Y-52324285D02*
X30982380Y-52324285D01*
X30982380Y-51943333D01*
X31030000Y-51848095D01*
X31077619Y-51800476D01*
X31172857Y-51752857D01*
X31315714Y-51752857D01*
X31410952Y-51800476D01*
X31458571Y-51848095D01*
X31506190Y-51943333D01*
X31506190Y-52324285D01*
X30982380Y-51419523D02*
X30982380Y-50800476D01*
X31363333Y-51133809D01*
X31363333Y-50990952D01*
X31410952Y-50895714D01*
X31458571Y-50848095D01*
X31553809Y-50800476D01*
X31791904Y-50800476D01*
X31887142Y-50848095D01*
X31934761Y-50895714D01*
X31982380Y-50990952D01*
X31982380Y-51276666D01*
X31934761Y-51371904D01*
X31887142Y-51419523D01*
X30982380Y-50467142D02*
X30982380Y-49848095D01*
X31363333Y-50181428D01*
X31363333Y-50038571D01*
X31410952Y-49943333D01*
X31458571Y-49895714D01*
X31553809Y-49848095D01*
X31791904Y-49848095D01*
X31887142Y-49895714D01*
X31934761Y-49943333D01*
X31982380Y-50038571D01*
X31982380Y-50324285D01*
X31934761Y-50419523D01*
X31887142Y-50467142D01*
%TO.C,R32*%
X67952380Y-51642857D02*
X67476190Y-51976190D01*
X67952380Y-52214285D02*
X66952380Y-52214285D01*
X66952380Y-51833333D01*
X67000000Y-51738095D01*
X67047619Y-51690476D01*
X67142857Y-51642857D01*
X67285714Y-51642857D01*
X67380952Y-51690476D01*
X67428571Y-51738095D01*
X67476190Y-51833333D01*
X67476190Y-52214285D01*
X66952380Y-51309523D02*
X66952380Y-50690476D01*
X67333333Y-51023809D01*
X67333333Y-50880952D01*
X67380952Y-50785714D01*
X67428571Y-50738095D01*
X67523809Y-50690476D01*
X67761904Y-50690476D01*
X67857142Y-50738095D01*
X67904761Y-50785714D01*
X67952380Y-50880952D01*
X67952380Y-51166666D01*
X67904761Y-51261904D01*
X67857142Y-51309523D01*
X67047619Y-50309523D02*
X67000000Y-50261904D01*
X66952380Y-50166666D01*
X66952380Y-49928571D01*
X67000000Y-49833333D01*
X67047619Y-49785714D01*
X67142857Y-49738095D01*
X67238095Y-49738095D01*
X67380952Y-49785714D01*
X67952380Y-50357142D01*
X67952380Y-49738095D01*
%TO.C,R31*%
X72452380Y-51642857D02*
X71976190Y-51976190D01*
X72452380Y-52214285D02*
X71452380Y-52214285D01*
X71452380Y-51833333D01*
X71500000Y-51738095D01*
X71547619Y-51690476D01*
X71642857Y-51642857D01*
X71785714Y-51642857D01*
X71880952Y-51690476D01*
X71928571Y-51738095D01*
X71976190Y-51833333D01*
X71976190Y-52214285D01*
X71452380Y-51309523D02*
X71452380Y-50690476D01*
X71833333Y-51023809D01*
X71833333Y-50880952D01*
X71880952Y-50785714D01*
X71928571Y-50738095D01*
X72023809Y-50690476D01*
X72261904Y-50690476D01*
X72357142Y-50738095D01*
X72404761Y-50785714D01*
X72452380Y-50880952D01*
X72452380Y-51166666D01*
X72404761Y-51261904D01*
X72357142Y-51309523D01*
X72452380Y-49738095D02*
X72452380Y-50309523D01*
X72452380Y-50023809D02*
X71452380Y-50023809D01*
X71595238Y-50119047D01*
X71690476Y-50214285D01*
X71738095Y-50309523D01*
%TO.C,R30*%
X70202380Y-51642857D02*
X69726190Y-51976190D01*
X70202380Y-52214285D02*
X69202380Y-52214285D01*
X69202380Y-51833333D01*
X69250000Y-51738095D01*
X69297619Y-51690476D01*
X69392857Y-51642857D01*
X69535714Y-51642857D01*
X69630952Y-51690476D01*
X69678571Y-51738095D01*
X69726190Y-51833333D01*
X69726190Y-52214285D01*
X69202380Y-51309523D02*
X69202380Y-50690476D01*
X69583333Y-51023809D01*
X69583333Y-50880952D01*
X69630952Y-50785714D01*
X69678571Y-50738095D01*
X69773809Y-50690476D01*
X70011904Y-50690476D01*
X70107142Y-50738095D01*
X70154761Y-50785714D01*
X70202380Y-50880952D01*
X70202380Y-51166666D01*
X70154761Y-51261904D01*
X70107142Y-51309523D01*
X69202380Y-50071428D02*
X69202380Y-49976190D01*
X69250000Y-49880952D01*
X69297619Y-49833333D01*
X69392857Y-49785714D01*
X69583333Y-49738095D01*
X69821428Y-49738095D01*
X70011904Y-49785714D01*
X70107142Y-49833333D01*
X70154761Y-49880952D01*
X70202380Y-49976190D01*
X70202380Y-50071428D01*
X70154761Y-50166666D01*
X70107142Y-50214285D01*
X70011904Y-50261904D01*
X69821428Y-50309523D01*
X69583333Y-50309523D01*
X69392857Y-50261904D01*
X69297619Y-50214285D01*
X69250000Y-50166666D01*
X69202380Y-50071428D01*
%TO.C,R29*%
X74702380Y-51642857D02*
X74226190Y-51976190D01*
X74702380Y-52214285D02*
X73702380Y-52214285D01*
X73702380Y-51833333D01*
X73750000Y-51738095D01*
X73797619Y-51690476D01*
X73892857Y-51642857D01*
X74035714Y-51642857D01*
X74130952Y-51690476D01*
X74178571Y-51738095D01*
X74226190Y-51833333D01*
X74226190Y-52214285D01*
X73797619Y-51261904D02*
X73750000Y-51214285D01*
X73702380Y-51119047D01*
X73702380Y-50880952D01*
X73750000Y-50785714D01*
X73797619Y-50738095D01*
X73892857Y-50690476D01*
X73988095Y-50690476D01*
X74130952Y-50738095D01*
X74702380Y-51309523D01*
X74702380Y-50690476D01*
X74702380Y-50214285D02*
X74702380Y-50023809D01*
X74654761Y-49928571D01*
X74607142Y-49880952D01*
X74464285Y-49785714D01*
X74273809Y-49738095D01*
X73892857Y-49738095D01*
X73797619Y-49785714D01*
X73750000Y-49833333D01*
X73702380Y-49928571D01*
X73702380Y-50119047D01*
X73750000Y-50214285D01*
X73797619Y-50261904D01*
X73892857Y-50309523D01*
X74130952Y-50309523D01*
X74226190Y-50261904D01*
X74273809Y-50214285D01*
X74321428Y-50119047D01*
X74321428Y-49928571D01*
X74273809Y-49833333D01*
X74226190Y-49785714D01*
X74130952Y-49738095D01*
%TO.C,R28*%
X76952380Y-51642857D02*
X76476190Y-51976190D01*
X76952380Y-52214285D02*
X75952380Y-52214285D01*
X75952380Y-51833333D01*
X76000000Y-51738095D01*
X76047619Y-51690476D01*
X76142857Y-51642857D01*
X76285714Y-51642857D01*
X76380952Y-51690476D01*
X76428571Y-51738095D01*
X76476190Y-51833333D01*
X76476190Y-52214285D01*
X76047619Y-51261904D02*
X76000000Y-51214285D01*
X75952380Y-51119047D01*
X75952380Y-50880952D01*
X76000000Y-50785714D01*
X76047619Y-50738095D01*
X76142857Y-50690476D01*
X76238095Y-50690476D01*
X76380952Y-50738095D01*
X76952380Y-51309523D01*
X76952380Y-50690476D01*
X76380952Y-50119047D02*
X76333333Y-50214285D01*
X76285714Y-50261904D01*
X76190476Y-50309523D01*
X76142857Y-50309523D01*
X76047619Y-50261904D01*
X76000000Y-50214285D01*
X75952380Y-50119047D01*
X75952380Y-49928571D01*
X76000000Y-49833333D01*
X76047619Y-49785714D01*
X76142857Y-49738095D01*
X76190476Y-49738095D01*
X76285714Y-49785714D01*
X76333333Y-49833333D01*
X76380952Y-49928571D01*
X76380952Y-50119047D01*
X76428571Y-50214285D01*
X76476190Y-50261904D01*
X76571428Y-50309523D01*
X76761904Y-50309523D01*
X76857142Y-50261904D01*
X76904761Y-50214285D01*
X76952380Y-50119047D01*
X76952380Y-49928571D01*
X76904761Y-49833333D01*
X76857142Y-49785714D01*
X76761904Y-49738095D01*
X76571428Y-49738095D01*
X76476190Y-49785714D01*
X76428571Y-49833333D01*
X76380952Y-49928571D01*
%TO.C,R27*%
X81452380Y-51642857D02*
X80976190Y-51976190D01*
X81452380Y-52214285D02*
X80452380Y-52214285D01*
X80452380Y-51833333D01*
X80500000Y-51738095D01*
X80547619Y-51690476D01*
X80642857Y-51642857D01*
X80785714Y-51642857D01*
X80880952Y-51690476D01*
X80928571Y-51738095D01*
X80976190Y-51833333D01*
X80976190Y-52214285D01*
X80547619Y-51261904D02*
X80500000Y-51214285D01*
X80452380Y-51119047D01*
X80452380Y-50880952D01*
X80500000Y-50785714D01*
X80547619Y-50738095D01*
X80642857Y-50690476D01*
X80738095Y-50690476D01*
X80880952Y-50738095D01*
X81452380Y-51309523D01*
X81452380Y-50690476D01*
X80452380Y-50357142D02*
X80452380Y-49690476D01*
X81452380Y-50119047D01*
%TO.C,R26*%
X79202380Y-51642857D02*
X78726190Y-51976190D01*
X79202380Y-52214285D02*
X78202380Y-52214285D01*
X78202380Y-51833333D01*
X78250000Y-51738095D01*
X78297619Y-51690476D01*
X78392857Y-51642857D01*
X78535714Y-51642857D01*
X78630952Y-51690476D01*
X78678571Y-51738095D01*
X78726190Y-51833333D01*
X78726190Y-52214285D01*
X78297619Y-51261904D02*
X78250000Y-51214285D01*
X78202380Y-51119047D01*
X78202380Y-50880952D01*
X78250000Y-50785714D01*
X78297619Y-50738095D01*
X78392857Y-50690476D01*
X78488095Y-50690476D01*
X78630952Y-50738095D01*
X79202380Y-51309523D01*
X79202380Y-50690476D01*
X78202380Y-49833333D02*
X78202380Y-50023809D01*
X78250000Y-50119047D01*
X78297619Y-50166666D01*
X78440476Y-50261904D01*
X78630952Y-50309523D01*
X79011904Y-50309523D01*
X79107142Y-50261904D01*
X79154761Y-50214285D01*
X79202380Y-50119047D01*
X79202380Y-49928571D01*
X79154761Y-49833333D01*
X79107142Y-49785714D01*
X79011904Y-49738095D01*
X78773809Y-49738095D01*
X78678571Y-49785714D01*
X78630952Y-49833333D01*
X78583333Y-49928571D01*
X78583333Y-50119047D01*
X78630952Y-50214285D01*
X78678571Y-50261904D01*
X78773809Y-50309523D01*
%TO.C,R25*%
X52202380Y-51642857D02*
X51726190Y-51976190D01*
X52202380Y-52214285D02*
X51202380Y-52214285D01*
X51202380Y-51833333D01*
X51250000Y-51738095D01*
X51297619Y-51690476D01*
X51392857Y-51642857D01*
X51535714Y-51642857D01*
X51630952Y-51690476D01*
X51678571Y-51738095D01*
X51726190Y-51833333D01*
X51726190Y-52214285D01*
X51297619Y-51261904D02*
X51250000Y-51214285D01*
X51202380Y-51119047D01*
X51202380Y-50880952D01*
X51250000Y-50785714D01*
X51297619Y-50738095D01*
X51392857Y-50690476D01*
X51488095Y-50690476D01*
X51630952Y-50738095D01*
X52202380Y-51309523D01*
X52202380Y-50690476D01*
X51202380Y-49785714D02*
X51202380Y-50261904D01*
X51678571Y-50309523D01*
X51630952Y-50261904D01*
X51583333Y-50166666D01*
X51583333Y-49928571D01*
X51630952Y-49833333D01*
X51678571Y-49785714D01*
X51773809Y-49738095D01*
X52011904Y-49738095D01*
X52107142Y-49785714D01*
X52154761Y-49833333D01*
X52202380Y-49928571D01*
X52202380Y-50166666D01*
X52154761Y-50261904D01*
X52107142Y-50309523D01*
%TO.C,R24*%
X56702380Y-51642857D02*
X56226190Y-51976190D01*
X56702380Y-52214285D02*
X55702380Y-52214285D01*
X55702380Y-51833333D01*
X55750000Y-51738095D01*
X55797619Y-51690476D01*
X55892857Y-51642857D01*
X56035714Y-51642857D01*
X56130952Y-51690476D01*
X56178571Y-51738095D01*
X56226190Y-51833333D01*
X56226190Y-52214285D01*
X55797619Y-51261904D02*
X55750000Y-51214285D01*
X55702380Y-51119047D01*
X55702380Y-50880952D01*
X55750000Y-50785714D01*
X55797619Y-50738095D01*
X55892857Y-50690476D01*
X55988095Y-50690476D01*
X56130952Y-50738095D01*
X56702380Y-51309523D01*
X56702380Y-50690476D01*
X56035714Y-49833333D02*
X56702380Y-49833333D01*
X55654761Y-50071428D02*
X56369047Y-50309523D01*
X56369047Y-49690476D01*
%TO.C,R23*%
X54452380Y-51642857D02*
X53976190Y-51976190D01*
X54452380Y-52214285D02*
X53452380Y-52214285D01*
X53452380Y-51833333D01*
X53500000Y-51738095D01*
X53547619Y-51690476D01*
X53642857Y-51642857D01*
X53785714Y-51642857D01*
X53880952Y-51690476D01*
X53928571Y-51738095D01*
X53976190Y-51833333D01*
X53976190Y-52214285D01*
X53547619Y-51261904D02*
X53500000Y-51214285D01*
X53452380Y-51119047D01*
X53452380Y-50880952D01*
X53500000Y-50785714D01*
X53547619Y-50738095D01*
X53642857Y-50690476D01*
X53738095Y-50690476D01*
X53880952Y-50738095D01*
X54452380Y-51309523D01*
X54452380Y-50690476D01*
X53452380Y-50357142D02*
X53452380Y-49738095D01*
X53833333Y-50071428D01*
X53833333Y-49928571D01*
X53880952Y-49833333D01*
X53928571Y-49785714D01*
X54023809Y-49738095D01*
X54261904Y-49738095D01*
X54357142Y-49785714D01*
X54404761Y-49833333D01*
X54452380Y-49928571D01*
X54452380Y-50214285D01*
X54404761Y-50309523D01*
X54357142Y-50357142D01*
%TO.C,R22*%
X58952380Y-51642857D02*
X58476190Y-51976190D01*
X58952380Y-52214285D02*
X57952380Y-52214285D01*
X57952380Y-51833333D01*
X58000000Y-51738095D01*
X58047619Y-51690476D01*
X58142857Y-51642857D01*
X58285714Y-51642857D01*
X58380952Y-51690476D01*
X58428571Y-51738095D01*
X58476190Y-51833333D01*
X58476190Y-52214285D01*
X58047619Y-51261904D02*
X58000000Y-51214285D01*
X57952380Y-51119047D01*
X57952380Y-50880952D01*
X58000000Y-50785714D01*
X58047619Y-50738095D01*
X58142857Y-50690476D01*
X58238095Y-50690476D01*
X58380952Y-50738095D01*
X58952380Y-51309523D01*
X58952380Y-50690476D01*
X58047619Y-50309523D02*
X58000000Y-50261904D01*
X57952380Y-50166666D01*
X57952380Y-49928571D01*
X58000000Y-49833333D01*
X58047619Y-49785714D01*
X58142857Y-49738095D01*
X58238095Y-49738095D01*
X58380952Y-49785714D01*
X58952380Y-50357142D01*
X58952380Y-49738095D01*
%TO.C,R21*%
X61202380Y-51642857D02*
X60726190Y-51976190D01*
X61202380Y-52214285D02*
X60202380Y-52214285D01*
X60202380Y-51833333D01*
X60250000Y-51738095D01*
X60297619Y-51690476D01*
X60392857Y-51642857D01*
X60535714Y-51642857D01*
X60630952Y-51690476D01*
X60678571Y-51738095D01*
X60726190Y-51833333D01*
X60726190Y-52214285D01*
X60297619Y-51261904D02*
X60250000Y-51214285D01*
X60202380Y-51119047D01*
X60202380Y-50880952D01*
X60250000Y-50785714D01*
X60297619Y-50738095D01*
X60392857Y-50690476D01*
X60488095Y-50690476D01*
X60630952Y-50738095D01*
X61202380Y-51309523D01*
X61202380Y-50690476D01*
X61202380Y-49738095D02*
X61202380Y-50309523D01*
X61202380Y-50023809D02*
X60202380Y-50023809D01*
X60345238Y-50119047D01*
X60440476Y-50214285D01*
X60488095Y-50309523D01*
%TO.C,R20*%
X65702380Y-51642857D02*
X65226190Y-51976190D01*
X65702380Y-52214285D02*
X64702380Y-52214285D01*
X64702380Y-51833333D01*
X64750000Y-51738095D01*
X64797619Y-51690476D01*
X64892857Y-51642857D01*
X65035714Y-51642857D01*
X65130952Y-51690476D01*
X65178571Y-51738095D01*
X65226190Y-51833333D01*
X65226190Y-52214285D01*
X64797619Y-51261904D02*
X64750000Y-51214285D01*
X64702380Y-51119047D01*
X64702380Y-50880952D01*
X64750000Y-50785714D01*
X64797619Y-50738095D01*
X64892857Y-50690476D01*
X64988095Y-50690476D01*
X65130952Y-50738095D01*
X65702380Y-51309523D01*
X65702380Y-50690476D01*
X64702380Y-50071428D02*
X64702380Y-49976190D01*
X64750000Y-49880952D01*
X64797619Y-49833333D01*
X64892857Y-49785714D01*
X65083333Y-49738095D01*
X65321428Y-49738095D01*
X65511904Y-49785714D01*
X65607142Y-49833333D01*
X65654761Y-49880952D01*
X65702380Y-49976190D01*
X65702380Y-50071428D01*
X65654761Y-50166666D01*
X65607142Y-50214285D01*
X65511904Y-50261904D01*
X65321428Y-50309523D01*
X65083333Y-50309523D01*
X64892857Y-50261904D01*
X64797619Y-50214285D01*
X64750000Y-50166666D01*
X64702380Y-50071428D01*
%TO.C,R19*%
X63452380Y-51642857D02*
X62976190Y-51976190D01*
X63452380Y-52214285D02*
X62452380Y-52214285D01*
X62452380Y-51833333D01*
X62500000Y-51738095D01*
X62547619Y-51690476D01*
X62642857Y-51642857D01*
X62785714Y-51642857D01*
X62880952Y-51690476D01*
X62928571Y-51738095D01*
X62976190Y-51833333D01*
X62976190Y-52214285D01*
X63452380Y-50690476D02*
X63452380Y-51261904D01*
X63452380Y-50976190D02*
X62452380Y-50976190D01*
X62595238Y-51071428D01*
X62690476Y-51166666D01*
X62738095Y-51261904D01*
X63452380Y-50214285D02*
X63452380Y-50023809D01*
X63404761Y-49928571D01*
X63357142Y-49880952D01*
X63214285Y-49785714D01*
X63023809Y-49738095D01*
X62642857Y-49738095D01*
X62547619Y-49785714D01*
X62500000Y-49833333D01*
X62452380Y-49928571D01*
X62452380Y-50119047D01*
X62500000Y-50214285D01*
X62547619Y-50261904D01*
X62642857Y-50309523D01*
X62880952Y-50309523D01*
X62976190Y-50261904D01*
X63023809Y-50214285D01*
X63071428Y-50119047D01*
X63071428Y-49928571D01*
X63023809Y-49833333D01*
X62976190Y-49785714D01*
X62880952Y-49738095D01*
%TO.C,R18*%
X101702380Y-51642857D02*
X101226190Y-51976190D01*
X101702380Y-52214285D02*
X100702380Y-52214285D01*
X100702380Y-51833333D01*
X100750000Y-51738095D01*
X100797619Y-51690476D01*
X100892857Y-51642857D01*
X101035714Y-51642857D01*
X101130952Y-51690476D01*
X101178571Y-51738095D01*
X101226190Y-51833333D01*
X101226190Y-52214285D01*
X101702380Y-50690476D02*
X101702380Y-51261904D01*
X101702380Y-50976190D02*
X100702380Y-50976190D01*
X100845238Y-51071428D01*
X100940476Y-51166666D01*
X100988095Y-51261904D01*
X101130952Y-50119047D02*
X101083333Y-50214285D01*
X101035714Y-50261904D01*
X100940476Y-50309523D01*
X100892857Y-50309523D01*
X100797619Y-50261904D01*
X100750000Y-50214285D01*
X100702380Y-50119047D01*
X100702380Y-49928571D01*
X100750000Y-49833333D01*
X100797619Y-49785714D01*
X100892857Y-49738095D01*
X100940476Y-49738095D01*
X101035714Y-49785714D01*
X101083333Y-49833333D01*
X101130952Y-49928571D01*
X101130952Y-50119047D01*
X101178571Y-50214285D01*
X101226190Y-50261904D01*
X101321428Y-50309523D01*
X101511904Y-50309523D01*
X101607142Y-50261904D01*
X101654761Y-50214285D01*
X101702380Y-50119047D01*
X101702380Y-49928571D01*
X101654761Y-49833333D01*
X101607142Y-49785714D01*
X101511904Y-49738095D01*
X101321428Y-49738095D01*
X101226190Y-49785714D01*
X101178571Y-49833333D01*
X101130952Y-49928571D01*
%TO.C,R17*%
X103952380Y-51642857D02*
X103476190Y-51976190D01*
X103952380Y-52214285D02*
X102952380Y-52214285D01*
X102952380Y-51833333D01*
X103000000Y-51738095D01*
X103047619Y-51690476D01*
X103142857Y-51642857D01*
X103285714Y-51642857D01*
X103380952Y-51690476D01*
X103428571Y-51738095D01*
X103476190Y-51833333D01*
X103476190Y-52214285D01*
X103952380Y-50690476D02*
X103952380Y-51261904D01*
X103952380Y-50976190D02*
X102952380Y-50976190D01*
X103095238Y-51071428D01*
X103190476Y-51166666D01*
X103238095Y-51261904D01*
X102952380Y-50357142D02*
X102952380Y-49690476D01*
X103952380Y-50119047D01*
%TO.C,R16*%
X106202380Y-51642857D02*
X105726190Y-51976190D01*
X106202380Y-52214285D02*
X105202380Y-52214285D01*
X105202380Y-51833333D01*
X105250000Y-51738095D01*
X105297619Y-51690476D01*
X105392857Y-51642857D01*
X105535714Y-51642857D01*
X105630952Y-51690476D01*
X105678571Y-51738095D01*
X105726190Y-51833333D01*
X105726190Y-52214285D01*
X106202380Y-50690476D02*
X106202380Y-51261904D01*
X106202380Y-50976190D02*
X105202380Y-50976190D01*
X105345238Y-51071428D01*
X105440476Y-51166666D01*
X105488095Y-51261904D01*
X105202380Y-49833333D02*
X105202380Y-50023809D01*
X105250000Y-50119047D01*
X105297619Y-50166666D01*
X105440476Y-50261904D01*
X105630952Y-50309523D01*
X106011904Y-50309523D01*
X106107142Y-50261904D01*
X106154761Y-50214285D01*
X106202380Y-50119047D01*
X106202380Y-49928571D01*
X106154761Y-49833333D01*
X106107142Y-49785714D01*
X106011904Y-49738095D01*
X105773809Y-49738095D01*
X105678571Y-49785714D01*
X105630952Y-49833333D01*
X105583333Y-49928571D01*
X105583333Y-50119047D01*
X105630952Y-50214285D01*
X105678571Y-50261904D01*
X105773809Y-50309523D01*
%TO.C,R15*%
X108452380Y-51642857D02*
X107976190Y-51976190D01*
X108452380Y-52214285D02*
X107452380Y-52214285D01*
X107452380Y-51833333D01*
X107500000Y-51738095D01*
X107547619Y-51690476D01*
X107642857Y-51642857D01*
X107785714Y-51642857D01*
X107880952Y-51690476D01*
X107928571Y-51738095D01*
X107976190Y-51833333D01*
X107976190Y-52214285D01*
X108452380Y-50690476D02*
X108452380Y-51261904D01*
X108452380Y-50976190D02*
X107452380Y-50976190D01*
X107595238Y-51071428D01*
X107690476Y-51166666D01*
X107738095Y-51261904D01*
X107452380Y-49785714D02*
X107452380Y-50261904D01*
X107928571Y-50309523D01*
X107880952Y-50261904D01*
X107833333Y-50166666D01*
X107833333Y-49928571D01*
X107880952Y-49833333D01*
X107928571Y-49785714D01*
X108023809Y-49738095D01*
X108261904Y-49738095D01*
X108357142Y-49785714D01*
X108404761Y-49833333D01*
X108452380Y-49928571D01*
X108452380Y-50166666D01*
X108404761Y-50261904D01*
X108357142Y-50309523D01*
%TO.C,R14*%
X110702380Y-51642857D02*
X110226190Y-51976190D01*
X110702380Y-52214285D02*
X109702380Y-52214285D01*
X109702380Y-51833333D01*
X109750000Y-51738095D01*
X109797619Y-51690476D01*
X109892857Y-51642857D01*
X110035714Y-51642857D01*
X110130952Y-51690476D01*
X110178571Y-51738095D01*
X110226190Y-51833333D01*
X110226190Y-52214285D01*
X110702380Y-50690476D02*
X110702380Y-51261904D01*
X110702380Y-50976190D02*
X109702380Y-50976190D01*
X109845238Y-51071428D01*
X109940476Y-51166666D01*
X109988095Y-51261904D01*
X110035714Y-49833333D02*
X110702380Y-49833333D01*
X109654761Y-50071428D02*
X110369047Y-50309523D01*
X110369047Y-49690476D01*
%TO.C,R13*%
X112952380Y-51642857D02*
X112476190Y-51976190D01*
X112952380Y-52214285D02*
X111952380Y-52214285D01*
X111952380Y-51833333D01*
X112000000Y-51738095D01*
X112047619Y-51690476D01*
X112142857Y-51642857D01*
X112285714Y-51642857D01*
X112380952Y-51690476D01*
X112428571Y-51738095D01*
X112476190Y-51833333D01*
X112476190Y-52214285D01*
X112952380Y-50690476D02*
X112952380Y-51261904D01*
X112952380Y-50976190D02*
X111952380Y-50976190D01*
X112095238Y-51071428D01*
X112190476Y-51166666D01*
X112238095Y-51261904D01*
X111952380Y-50357142D02*
X111952380Y-49738095D01*
X112333333Y-50071428D01*
X112333333Y-49928571D01*
X112380952Y-49833333D01*
X112428571Y-49785714D01*
X112523809Y-49738095D01*
X112761904Y-49738095D01*
X112857142Y-49785714D01*
X112904761Y-49833333D01*
X112952380Y-49928571D01*
X112952380Y-50214285D01*
X112904761Y-50309523D01*
X112857142Y-50357142D01*
%TO.C,R12*%
X99452380Y-51642857D02*
X98976190Y-51976190D01*
X99452380Y-52214285D02*
X98452380Y-52214285D01*
X98452380Y-51833333D01*
X98500000Y-51738095D01*
X98547619Y-51690476D01*
X98642857Y-51642857D01*
X98785714Y-51642857D01*
X98880952Y-51690476D01*
X98928571Y-51738095D01*
X98976190Y-51833333D01*
X98976190Y-52214285D01*
X99452380Y-50690476D02*
X99452380Y-51261904D01*
X99452380Y-50976190D02*
X98452380Y-50976190D01*
X98595238Y-51071428D01*
X98690476Y-51166666D01*
X98738095Y-51261904D01*
X98547619Y-50309523D02*
X98500000Y-50261904D01*
X98452380Y-50166666D01*
X98452380Y-49928571D01*
X98500000Y-49833333D01*
X98547619Y-49785714D01*
X98642857Y-49738095D01*
X98738095Y-49738095D01*
X98880952Y-49785714D01*
X99452380Y-50357142D01*
X99452380Y-49738095D01*
%TO.C,R11*%
X83702380Y-51642857D02*
X83226190Y-51976190D01*
X83702380Y-52214285D02*
X82702380Y-52214285D01*
X82702380Y-51833333D01*
X82750000Y-51738095D01*
X82797619Y-51690476D01*
X82892857Y-51642857D01*
X83035714Y-51642857D01*
X83130952Y-51690476D01*
X83178571Y-51738095D01*
X83226190Y-51833333D01*
X83226190Y-52214285D01*
X83702380Y-50690476D02*
X83702380Y-51261904D01*
X83702380Y-50976190D02*
X82702380Y-50976190D01*
X82845238Y-51071428D01*
X82940476Y-51166666D01*
X82988095Y-51261904D01*
X83702380Y-49738095D02*
X83702380Y-50309523D01*
X83702380Y-50023809D02*
X82702380Y-50023809D01*
X82845238Y-50119047D01*
X82940476Y-50214285D01*
X82988095Y-50309523D01*
%TO.C,R10*%
X85904880Y-51642857D02*
X85428690Y-51976190D01*
X85904880Y-52214285D02*
X84904880Y-52214285D01*
X84904880Y-51833333D01*
X84952500Y-51738095D01*
X85000119Y-51690476D01*
X85095357Y-51642857D01*
X85238214Y-51642857D01*
X85333452Y-51690476D01*
X85381071Y-51738095D01*
X85428690Y-51833333D01*
X85428690Y-52214285D01*
X85904880Y-50690476D02*
X85904880Y-51261904D01*
X85904880Y-50976190D02*
X84904880Y-50976190D01*
X85047738Y-51071428D01*
X85142976Y-51166666D01*
X85190595Y-51261904D01*
X84904880Y-50071428D02*
X84904880Y-49976190D01*
X84952500Y-49880952D01*
X85000119Y-49833333D01*
X85095357Y-49785714D01*
X85285833Y-49738095D01*
X85523928Y-49738095D01*
X85714404Y-49785714D01*
X85809642Y-49833333D01*
X85857261Y-49880952D01*
X85904880Y-49976190D01*
X85904880Y-50071428D01*
X85857261Y-50166666D01*
X85809642Y-50214285D01*
X85714404Y-50261904D01*
X85523928Y-50309523D01*
X85285833Y-50309523D01*
X85095357Y-50261904D01*
X85000119Y-50214285D01*
X84952500Y-50166666D01*
X84904880Y-50071428D01*
%TO.C,R9*%
X88252380Y-51166666D02*
X87776190Y-51500000D01*
X88252380Y-51738095D02*
X87252380Y-51738095D01*
X87252380Y-51357142D01*
X87300000Y-51261904D01*
X87347619Y-51214285D01*
X87442857Y-51166666D01*
X87585714Y-51166666D01*
X87680952Y-51214285D01*
X87728571Y-51261904D01*
X87776190Y-51357142D01*
X87776190Y-51738095D01*
X88252380Y-50690476D02*
X88252380Y-50500000D01*
X88204761Y-50404761D01*
X88157142Y-50357142D01*
X88014285Y-50261904D01*
X87823809Y-50214285D01*
X87442857Y-50214285D01*
X87347619Y-50261904D01*
X87300000Y-50309523D01*
X87252380Y-50404761D01*
X87252380Y-50595238D01*
X87300000Y-50690476D01*
X87347619Y-50738095D01*
X87442857Y-50785714D01*
X87680952Y-50785714D01*
X87776190Y-50738095D01*
X87823809Y-50690476D01*
X87871428Y-50595238D01*
X87871428Y-50404761D01*
X87823809Y-50309523D01*
X87776190Y-50261904D01*
X87680952Y-50214285D01*
%TO.C,R8*%
X90452380Y-51166666D02*
X89976190Y-51500000D01*
X90452380Y-51738095D02*
X89452380Y-51738095D01*
X89452380Y-51357142D01*
X89500000Y-51261904D01*
X89547619Y-51214285D01*
X89642857Y-51166666D01*
X89785714Y-51166666D01*
X89880952Y-51214285D01*
X89928571Y-51261904D01*
X89976190Y-51357142D01*
X89976190Y-51738095D01*
X89880952Y-50595238D02*
X89833333Y-50690476D01*
X89785714Y-50738095D01*
X89690476Y-50785714D01*
X89642857Y-50785714D01*
X89547619Y-50738095D01*
X89500000Y-50690476D01*
X89452380Y-50595238D01*
X89452380Y-50404761D01*
X89500000Y-50309523D01*
X89547619Y-50261904D01*
X89642857Y-50214285D01*
X89690476Y-50214285D01*
X89785714Y-50261904D01*
X89833333Y-50309523D01*
X89880952Y-50404761D01*
X89880952Y-50595238D01*
X89928571Y-50690476D01*
X89976190Y-50738095D01*
X90071428Y-50785714D01*
X90261904Y-50785714D01*
X90357142Y-50738095D01*
X90404761Y-50690476D01*
X90452380Y-50595238D01*
X90452380Y-50404761D01*
X90404761Y-50309523D01*
X90357142Y-50261904D01*
X90261904Y-50214285D01*
X90071428Y-50214285D01*
X89976190Y-50261904D01*
X89928571Y-50309523D01*
X89880952Y-50404761D01*
%TO.C,R7*%
X92702380Y-51166666D02*
X92226190Y-51500000D01*
X92702380Y-51738095D02*
X91702380Y-51738095D01*
X91702380Y-51357142D01*
X91750000Y-51261904D01*
X91797619Y-51214285D01*
X91892857Y-51166666D01*
X92035714Y-51166666D01*
X92130952Y-51214285D01*
X92178571Y-51261904D01*
X92226190Y-51357142D01*
X92226190Y-51738095D01*
X91702380Y-50833333D02*
X91702380Y-50166666D01*
X92702380Y-50595238D01*
%TO.C,R6*%
X97202380Y-51166666D02*
X96726190Y-51500000D01*
X97202380Y-51738095D02*
X96202380Y-51738095D01*
X96202380Y-51357142D01*
X96250000Y-51261904D01*
X96297619Y-51214285D01*
X96392857Y-51166666D01*
X96535714Y-51166666D01*
X96630952Y-51214285D01*
X96678571Y-51261904D01*
X96726190Y-51357142D01*
X96726190Y-51738095D01*
X96202380Y-50309523D02*
X96202380Y-50500000D01*
X96250000Y-50595238D01*
X96297619Y-50642857D01*
X96440476Y-50738095D01*
X96630952Y-50785714D01*
X97011904Y-50785714D01*
X97107142Y-50738095D01*
X97154761Y-50690476D01*
X97202380Y-50595238D01*
X97202380Y-50404761D01*
X97154761Y-50309523D01*
X97107142Y-50261904D01*
X97011904Y-50214285D01*
X96773809Y-50214285D01*
X96678571Y-50261904D01*
X96630952Y-50309523D01*
X96583333Y-50404761D01*
X96583333Y-50595238D01*
X96630952Y-50690476D01*
X96678571Y-50738095D01*
X96773809Y-50785714D01*
%TO.C,R5*%
X94952380Y-51166666D02*
X94476190Y-51500000D01*
X94952380Y-51738095D02*
X93952380Y-51738095D01*
X93952380Y-51357142D01*
X94000000Y-51261904D01*
X94047619Y-51214285D01*
X94142857Y-51166666D01*
X94285714Y-51166666D01*
X94380952Y-51214285D01*
X94428571Y-51261904D01*
X94476190Y-51357142D01*
X94476190Y-51738095D01*
X93952380Y-50261904D02*
X93952380Y-50738095D01*
X94428571Y-50785714D01*
X94380952Y-50738095D01*
X94333333Y-50642857D01*
X94333333Y-50404761D01*
X94380952Y-50309523D01*
X94428571Y-50261904D01*
X94523809Y-50214285D01*
X94761904Y-50214285D01*
X94857142Y-50261904D01*
X94904761Y-50309523D01*
X94952380Y-50404761D01*
X94952380Y-50642857D01*
X94904761Y-50738095D01*
X94857142Y-50785714D01*
%TO.C,R4*%
X82103333Y-108292380D02*
X81770000Y-107816190D01*
X81531904Y-108292380D02*
X81531904Y-107292380D01*
X81912857Y-107292380D01*
X82008095Y-107340000D01*
X82055714Y-107387619D01*
X82103333Y-107482857D01*
X82103333Y-107625714D01*
X82055714Y-107720952D01*
X82008095Y-107768571D01*
X81912857Y-107816190D01*
X81531904Y-107816190D01*
X82960476Y-107625714D02*
X82960476Y-108292380D01*
X82722380Y-107244761D02*
X82484285Y-107959047D01*
X83103333Y-107959047D01*
%TO.C,R3*%
X89233333Y-90552380D02*
X88900000Y-90076190D01*
X88661904Y-90552380D02*
X88661904Y-89552380D01*
X89042857Y-89552380D01*
X89138095Y-89600000D01*
X89185714Y-89647619D01*
X89233333Y-89742857D01*
X89233333Y-89885714D01*
X89185714Y-89980952D01*
X89138095Y-90028571D01*
X89042857Y-90076190D01*
X88661904Y-90076190D01*
X89566666Y-89552380D02*
X90185714Y-89552380D01*
X89852380Y-89933333D01*
X89995238Y-89933333D01*
X90090476Y-89980952D01*
X90138095Y-90028571D01*
X90185714Y-90123809D01*
X90185714Y-90361904D01*
X90138095Y-90457142D01*
X90090476Y-90504761D01*
X89995238Y-90552380D01*
X89709523Y-90552380D01*
X89614285Y-90504761D01*
X89566666Y-90457142D01*
%TO.C,R2*%
X112352380Y-91966666D02*
X111876190Y-92300000D01*
X112352380Y-92538095D02*
X111352380Y-92538095D01*
X111352380Y-92157142D01*
X111400000Y-92061904D01*
X111447619Y-92014285D01*
X111542857Y-91966666D01*
X111685714Y-91966666D01*
X111780952Y-92014285D01*
X111828571Y-92061904D01*
X111876190Y-92157142D01*
X111876190Y-92538095D01*
X111447619Y-91585714D02*
X111400000Y-91538095D01*
X111352380Y-91442857D01*
X111352380Y-91204761D01*
X111400000Y-91109523D01*
X111447619Y-91061904D01*
X111542857Y-91014285D01*
X111638095Y-91014285D01*
X111780952Y-91061904D01*
X112352380Y-91633333D01*
X112352380Y-91014285D01*
%TO.C,R1*%
X72123333Y-90352380D02*
X71790000Y-89876190D01*
X71551904Y-90352380D02*
X71551904Y-89352380D01*
X71932857Y-89352380D01*
X72028095Y-89400000D01*
X72075714Y-89447619D01*
X72123333Y-89542857D01*
X72123333Y-89685714D01*
X72075714Y-89780952D01*
X72028095Y-89828571D01*
X71932857Y-89876190D01*
X71551904Y-89876190D01*
X73075714Y-90352380D02*
X72504285Y-90352380D01*
X72790000Y-90352380D02*
X72790000Y-89352380D01*
X72694761Y-89495238D01*
X72599523Y-89590476D01*
X72504285Y-89638095D01*
%TO.C,Minute1*%
X53123333Y-97492380D02*
X53123333Y-96492380D01*
X53456666Y-97206666D01*
X53790000Y-96492380D01*
X53790000Y-97492380D01*
X54266190Y-97492380D02*
X54266190Y-96825714D01*
X54266190Y-96492380D02*
X54218571Y-96540000D01*
X54266190Y-96587619D01*
X54313809Y-96540000D01*
X54266190Y-96492380D01*
X54266190Y-96587619D01*
X54742380Y-96825714D02*
X54742380Y-97492380D01*
X54742380Y-96920952D02*
X54790000Y-96873333D01*
X54885238Y-96825714D01*
X55028095Y-96825714D01*
X55123333Y-96873333D01*
X55170952Y-96968571D01*
X55170952Y-97492380D01*
X56075714Y-96825714D02*
X56075714Y-97492380D01*
X55647142Y-96825714D02*
X55647142Y-97349523D01*
X55694761Y-97444761D01*
X55790000Y-97492380D01*
X55932857Y-97492380D01*
X56028095Y-97444761D01*
X56075714Y-97397142D01*
X56409047Y-96825714D02*
X56790000Y-96825714D01*
X56551904Y-96492380D02*
X56551904Y-97349523D01*
X56599523Y-97444761D01*
X56694761Y-97492380D01*
X56790000Y-97492380D01*
X57504285Y-97444761D02*
X57409047Y-97492380D01*
X57218571Y-97492380D01*
X57123333Y-97444761D01*
X57075714Y-97349523D01*
X57075714Y-96968571D01*
X57123333Y-96873333D01*
X57218571Y-96825714D01*
X57409047Y-96825714D01*
X57504285Y-96873333D01*
X57551904Y-96968571D01*
X57551904Y-97063809D01*
X57075714Y-97159047D01*
X58504285Y-97492380D02*
X57932857Y-97492380D01*
X58218571Y-97492380D02*
X58218571Y-96492380D01*
X58123333Y-96635238D01*
X58028095Y-96730476D01*
X57932857Y-96778095D01*
%TO.C,Hour1*%
X46773809Y-97452380D02*
X46773809Y-96452380D01*
X46773809Y-96928571D02*
X47345238Y-96928571D01*
X47345238Y-97452380D02*
X47345238Y-96452380D01*
X47964285Y-97452380D02*
X47869047Y-97404761D01*
X47821428Y-97357142D01*
X47773809Y-97261904D01*
X47773809Y-96976190D01*
X47821428Y-96880952D01*
X47869047Y-96833333D01*
X47964285Y-96785714D01*
X48107142Y-96785714D01*
X48202380Y-96833333D01*
X48250000Y-96880952D01*
X48297619Y-96976190D01*
X48297619Y-97261904D01*
X48250000Y-97357142D01*
X48202380Y-97404761D01*
X48107142Y-97452380D01*
X47964285Y-97452380D01*
X49154761Y-96785714D02*
X49154761Y-97452380D01*
X48726190Y-96785714D02*
X48726190Y-97309523D01*
X48773809Y-97404761D01*
X48869047Y-97452380D01*
X49011904Y-97452380D01*
X49107142Y-97404761D01*
X49154761Y-97357142D01*
X49630952Y-97452380D02*
X49630952Y-96785714D01*
X49630952Y-96976190D02*
X49678571Y-96880952D01*
X49726190Y-96833333D01*
X49821428Y-96785714D01*
X49916666Y-96785714D01*
X50773809Y-97452380D02*
X50202380Y-97452380D01*
X50488095Y-97452380D02*
X50488095Y-96452380D01*
X50392857Y-96595238D01*
X50297619Y-96690476D01*
X50202380Y-96738095D01*
%TO.C,Ctime1*%
X94294285Y-104947142D02*
X94246666Y-104994761D01*
X94103809Y-105042380D01*
X94008571Y-105042380D01*
X93865714Y-104994761D01*
X93770476Y-104899523D01*
X93722857Y-104804285D01*
X93675238Y-104613809D01*
X93675238Y-104470952D01*
X93722857Y-104280476D01*
X93770476Y-104185238D01*
X93865714Y-104090000D01*
X94008571Y-104042380D01*
X94103809Y-104042380D01*
X94246666Y-104090000D01*
X94294285Y-104137619D01*
X94580000Y-104375714D02*
X94960952Y-104375714D01*
X94722857Y-104042380D02*
X94722857Y-104899523D01*
X94770476Y-104994761D01*
X94865714Y-105042380D01*
X94960952Y-105042380D01*
X95294285Y-105042380D02*
X95294285Y-104375714D01*
X95294285Y-104042380D02*
X95246666Y-104090000D01*
X95294285Y-104137619D01*
X95341904Y-104090000D01*
X95294285Y-104042380D01*
X95294285Y-104137619D01*
X95770476Y-105042380D02*
X95770476Y-104375714D01*
X95770476Y-104470952D02*
X95818095Y-104423333D01*
X95913333Y-104375714D01*
X96056190Y-104375714D01*
X96151428Y-104423333D01*
X96199047Y-104518571D01*
X96199047Y-105042380D01*
X96199047Y-104518571D02*
X96246666Y-104423333D01*
X96341904Y-104375714D01*
X96484761Y-104375714D01*
X96580000Y-104423333D01*
X96627619Y-104518571D01*
X96627619Y-105042380D01*
X97484761Y-104994761D02*
X97389523Y-105042380D01*
X97199047Y-105042380D01*
X97103809Y-104994761D01*
X97056190Y-104899523D01*
X97056190Y-104518571D01*
X97103809Y-104423333D01*
X97199047Y-104375714D01*
X97389523Y-104375714D01*
X97484761Y-104423333D01*
X97532380Y-104518571D01*
X97532380Y-104613809D01*
X97056190Y-104709047D01*
X98484761Y-105042380D02*
X97913333Y-105042380D01*
X98199047Y-105042380D02*
X98199047Y-104042380D01*
X98103809Y-104185238D01*
X98008571Y-104280476D01*
X97913333Y-104328095D01*
%TO.C,Cd1*%
X89460952Y-105647142D02*
X89413333Y-105694761D01*
X89270476Y-105742380D01*
X89175238Y-105742380D01*
X89032380Y-105694761D01*
X88937142Y-105599523D01*
X88889523Y-105504285D01*
X88841904Y-105313809D01*
X88841904Y-105170952D01*
X88889523Y-104980476D01*
X88937142Y-104885238D01*
X89032380Y-104790000D01*
X89175238Y-104742380D01*
X89270476Y-104742380D01*
X89413333Y-104790000D01*
X89460952Y-104837619D01*
X90318095Y-105742380D02*
X90318095Y-104742380D01*
X90318095Y-105694761D02*
X90222857Y-105742380D01*
X90032380Y-105742380D01*
X89937142Y-105694761D01*
X89889523Y-105647142D01*
X89841904Y-105551904D01*
X89841904Y-105266190D01*
X89889523Y-105170952D01*
X89937142Y-105123333D01*
X90032380Y-105075714D01*
X90222857Y-105075714D01*
X90318095Y-105123333D01*
X91318095Y-105742380D02*
X90746666Y-105742380D01*
X91032380Y-105742380D02*
X91032380Y-104742380D01*
X90937142Y-104885238D01*
X90841904Y-104980476D01*
X90746666Y-105028095D01*
D11*
%TO.C,U-Hx1*%
X27955000Y-61495000D02*
G75*
G03*
X29955000Y-61495000I1000000J0D01*
G01*
X25720000Y-81935000D02*
X32190000Y-81935000D01*
X32190000Y-61495000D02*
X29955000Y-61495000D01*
X32190000Y-81935000D02*
X32190000Y-61495000D01*
X27955000Y-61495000D02*
X25720000Y-61495000D01*
X25720000Y-61495000D02*
X25720000Y-81935000D01*
%TO.C,C1*%
X108340000Y-92280000D02*
X109556000Y-92280000D01*
X106149000Y-90999000D02*
X106660000Y-90999000D01*
X105984000Y-91159000D02*
X106660000Y-91159000D01*
X108340000Y-90839000D02*
X108642000Y-90839000D01*
X106104000Y-91039000D02*
X106660000Y-91039000D01*
X106022000Y-91119000D02*
X106660000Y-91119000D01*
X108340000Y-91159000D02*
X109016000Y-91159000D01*
X108340000Y-92320000D02*
X109562000Y-92320000D01*
X108340000Y-91679000D02*
X109370000Y-91679000D01*
X108340000Y-92000000D02*
X109494000Y-92000000D01*
X105466000Y-92160000D02*
X106660000Y-92160000D01*
X106963000Y-90559000D02*
X108037000Y-90559000D01*
X107130000Y-90519000D02*
X107870000Y-90519000D01*
X105421000Y-92520000D02*
X109579000Y-92520000D01*
X105429000Y-92400000D02*
X106660000Y-92400000D01*
X105560000Y-91839000D02*
X106660000Y-91839000D01*
X106560000Y-90719000D02*
X108440000Y-90719000D01*
X106062000Y-91079000D02*
X106660000Y-91079000D01*
X105820000Y-91359000D02*
X106660000Y-91359000D01*
X105532000Y-91920000D02*
X106660000Y-91920000D01*
X108340000Y-91839000D02*
X109440000Y-91839000D01*
X105546000Y-91879000D02*
X106660000Y-91879000D01*
X105423000Y-92480000D02*
X109577000Y-92480000D01*
X105420000Y-92560000D02*
X109580000Y-92560000D01*
X105433000Y-92360000D02*
X106660000Y-92360000D01*
X105649000Y-91639000D02*
X106660000Y-91639000D01*
X108340000Y-91119000D02*
X108978000Y-91119000D01*
X105630000Y-91679000D02*
X106660000Y-91679000D01*
X108340000Y-92120000D02*
X109525000Y-92120000D01*
X108340000Y-91519000D02*
X109285000Y-91519000D01*
X106246000Y-90919000D02*
X106660000Y-90919000D01*
X105765000Y-91439000D02*
X106660000Y-91439000D01*
X108340000Y-91399000D02*
X109208000Y-91399000D01*
X108340000Y-92240000D02*
X109550000Y-92240000D01*
X108340000Y-92040000D02*
X109505000Y-92040000D01*
X108340000Y-91559000D02*
X109308000Y-91559000D01*
X108340000Y-92080000D02*
X109516000Y-92080000D01*
X108340000Y-91960000D02*
X109482000Y-91960000D01*
X108340000Y-91079000D02*
X108938000Y-91079000D01*
X108340000Y-91879000D02*
X109454000Y-91879000D01*
X108340000Y-91759000D02*
X109407000Y-91759000D01*
X108340000Y-90879000D02*
X108700000Y-90879000D01*
X106196000Y-90959000D02*
X106660000Y-90959000D01*
X105948000Y-91199000D02*
X106660000Y-91199000D01*
X108340000Y-91239000D02*
X109087000Y-91239000D01*
X108340000Y-90919000D02*
X108754000Y-90919000D01*
X106487000Y-90759000D02*
X108513000Y-90759000D01*
X105881000Y-91279000D02*
X106660000Y-91279000D01*
X108340000Y-91479000D02*
X109260000Y-91479000D01*
X105740000Y-91479000D02*
X106660000Y-91479000D01*
X106300000Y-90879000D02*
X106660000Y-90879000D01*
X105670000Y-91599000D02*
X106660000Y-91599000D01*
X105611000Y-91719000D02*
X106660000Y-91719000D01*
X108340000Y-91439000D02*
X109235000Y-91439000D01*
X105576000Y-91799000D02*
X106660000Y-91799000D01*
X108340000Y-90959000D02*
X108804000Y-90959000D01*
X108340000Y-92160000D02*
X109534000Y-92160000D01*
X108340000Y-91359000D02*
X109180000Y-91359000D01*
X106305000Y-94869801D02*
X106305000Y-94469801D01*
X105444000Y-92280000D02*
X106660000Y-92280000D01*
X106732000Y-90639000D02*
X108268000Y-90639000D01*
X105518000Y-91960000D02*
X106660000Y-91960000D01*
X106105000Y-94669801D02*
X106505000Y-94669801D01*
X108340000Y-91639000D02*
X109351000Y-91639000D01*
X105692000Y-91559000D02*
X106660000Y-91559000D01*
X105458000Y-92200000D02*
X106660000Y-92200000D01*
X108340000Y-91039000D02*
X108896000Y-91039000D01*
X105715000Y-91519000D02*
X106660000Y-91519000D01*
X105913000Y-91239000D02*
X106660000Y-91239000D01*
X108340000Y-91799000D02*
X109424000Y-91799000D01*
X108340000Y-91279000D02*
X109119000Y-91279000D01*
X105506000Y-92000000D02*
X106660000Y-92000000D01*
X108340000Y-92200000D02*
X109542000Y-92200000D01*
X105593000Y-91759000D02*
X106660000Y-91759000D01*
X105426000Y-92440000D02*
X109574000Y-92440000D01*
X108340000Y-91920000D02*
X109468000Y-91920000D01*
X108340000Y-91599000D02*
X109330000Y-91599000D01*
X108340000Y-91319000D02*
X109150000Y-91319000D01*
X108340000Y-90799000D02*
X108580000Y-90799000D01*
X106420000Y-90799000D02*
X106660000Y-90799000D01*
X108340000Y-91719000D02*
X109389000Y-91719000D01*
X105420000Y-92600000D02*
X109580000Y-92600000D01*
X105792000Y-91399000D02*
X106660000Y-91399000D01*
X106836000Y-90599000D02*
X108164000Y-90599000D01*
X108340000Y-92360000D02*
X109567000Y-92360000D01*
X108340000Y-91199000D02*
X109052000Y-91199000D01*
X106641000Y-90679000D02*
X108359000Y-90679000D01*
X108340000Y-92400000D02*
X109571000Y-92400000D01*
X105484000Y-92080000D02*
X106660000Y-92080000D01*
X108340000Y-90999000D02*
X108851000Y-90999000D01*
X105450000Y-92240000D02*
X106660000Y-92240000D01*
X106358000Y-90839000D02*
X106660000Y-90839000D01*
X105475000Y-92120000D02*
X106660000Y-92120000D01*
X105850000Y-91319000D02*
X106660000Y-91319000D01*
X105495000Y-92040000D02*
X106660000Y-92040000D01*
X105438000Y-92320000D02*
X106660000Y-92320000D01*
X109620000Y-92600000D02*
G75*
G03*
X109620000Y-92600000I-2120000J0D01*
G01*
%TO.C,U-DMx1*%
X62118000Y-25314300D02*
X62118000Y-30673700D01*
X58079400Y-25314300D02*
X58079400Y-30673700D01*
X66360000Y-21267500D02*
X66360000Y-40487500D01*
X58257200Y-35753700D02*
X61940200Y-35753700D01*
X53640000Y-40487500D02*
X66360000Y-40487500D01*
X53640000Y-21267500D02*
X66360000Y-21267500D01*
X62118000Y-30851500D02*
X62118000Y-35753700D01*
X54120000Y-40837500D02*
X55730000Y-40837500D01*
X53640000Y-21267500D02*
X53640000Y-40487500D01*
X58257200Y-30749900D02*
X61940200Y-30749900D01*
X58079400Y-30851500D02*
X58079400Y-35753700D01*
X58257200Y-25288900D02*
X61940200Y-25288900D01*
X63462467Y-35939967D02*
G75*
G03*
X63462467Y-35939967I-472467J0D01*
G01*
%TO.C,U-DHx1*%
X31118000Y-25314300D02*
X31118000Y-30673700D01*
X27079400Y-25314300D02*
X27079400Y-30673700D01*
X35360000Y-21267500D02*
X35360000Y-40487500D01*
X27257200Y-35753700D02*
X30940200Y-35753700D01*
X22640000Y-40487500D02*
X35360000Y-40487500D01*
X22640000Y-21267500D02*
X35360000Y-21267500D01*
X31118000Y-30851500D02*
X31118000Y-35753700D01*
X23120000Y-40837500D02*
X24730000Y-40837500D01*
X22640000Y-21267500D02*
X22640000Y-40487500D01*
X27257200Y-30749900D02*
X30940200Y-30749900D01*
X27079400Y-30851500D02*
X27079400Y-35753700D01*
X27257200Y-25288900D02*
X30940200Y-25288900D01*
X32462467Y-35939967D02*
G75*
G03*
X32462467Y-35939967I-472467J0D01*
G01*
%TO.C,U-DxH1*%
X46118000Y-25314300D02*
X46118000Y-30673700D01*
X42079400Y-25314300D02*
X42079400Y-30673700D01*
X50360000Y-21267500D02*
X50360000Y-40487500D01*
X42257200Y-35753700D02*
X45940200Y-35753700D01*
X37640000Y-40487500D02*
X50360000Y-40487500D01*
X37640000Y-21267500D02*
X50360000Y-21267500D01*
X46118000Y-30851500D02*
X46118000Y-35753700D01*
X38120000Y-40837500D02*
X39730000Y-40837500D01*
X37640000Y-21267500D02*
X37640000Y-40487500D01*
X42257200Y-30749900D02*
X45940200Y-30749900D01*
X42079400Y-30851500D02*
X42079400Y-35753700D01*
X42257200Y-25288900D02*
X45940200Y-25288900D01*
X47462467Y-35939967D02*
G75*
G03*
X47462467Y-35939967I-472467J0D01*
G01*
%TO.C,U-DSx1*%
X93118000Y-25314300D02*
X93118000Y-30673700D01*
X89079400Y-25314300D02*
X89079400Y-30673700D01*
X97360000Y-21267500D02*
X97360000Y-40487500D01*
X89257200Y-35753700D02*
X92940200Y-35753700D01*
X84640000Y-40487500D02*
X97360000Y-40487500D01*
X84640000Y-21267500D02*
X97360000Y-21267500D01*
X93118000Y-30851500D02*
X93118000Y-35753700D01*
X85120000Y-40837500D02*
X86730000Y-40837500D01*
X84640000Y-21267500D02*
X84640000Y-40487500D01*
X89257200Y-30749900D02*
X92940200Y-30749900D01*
X89079400Y-30851500D02*
X89079400Y-35753700D01*
X89257200Y-25288900D02*
X92940200Y-25288900D01*
X94462467Y-35939967D02*
G75*
G03*
X94462467Y-35939967I-472467J0D01*
G01*
%TO.C,U-DxS1*%
X108118000Y-25314300D02*
X108118000Y-30673700D01*
X104079400Y-25314300D02*
X104079400Y-30673700D01*
X112360000Y-21267500D02*
X112360000Y-40487500D01*
X104257200Y-35753700D02*
X107940200Y-35753700D01*
X99640000Y-40487500D02*
X112360000Y-40487500D01*
X99640000Y-21267500D02*
X112360000Y-21267500D01*
X108118000Y-30851500D02*
X108118000Y-35753700D01*
X100120000Y-40837500D02*
X101730000Y-40837500D01*
X99640000Y-21267500D02*
X99640000Y-40487500D01*
X104257200Y-30749900D02*
X107940200Y-30749900D01*
X104079400Y-30851500D02*
X104079400Y-35753700D01*
X104257200Y-25288900D02*
X107940200Y-25288900D01*
X109462467Y-35939967D02*
G75*
G03*
X109462467Y-35939967I-472467J0D01*
G01*
%TO.C,U-DxM1*%
X77118000Y-25314300D02*
X77118000Y-30673700D01*
X73079400Y-25314300D02*
X73079400Y-30673700D01*
X81360000Y-21267500D02*
X81360000Y-40487500D01*
X73257200Y-35753700D02*
X76940200Y-35753700D01*
X68640000Y-40487500D02*
X81360000Y-40487500D01*
X68640000Y-21267500D02*
X81360000Y-21267500D01*
X77118000Y-30851500D02*
X77118000Y-35753700D01*
X69120000Y-40837500D02*
X70730000Y-40837500D01*
X68640000Y-21267500D02*
X68640000Y-40487500D01*
X73257200Y-30749900D02*
X76940200Y-30749900D01*
X73079400Y-30851500D02*
X73079400Y-35753700D01*
X73257200Y-25288900D02*
X76940200Y-25288900D01*
X78462467Y-35939967D02*
G75*
G03*
X78462467Y-35939967I-472467J0D01*
G01*
%TO.C,TimeSet1*%
X73600000Y-94230000D02*
X74930000Y-94230000D01*
X74930000Y-96830000D02*
X74930000Y-101970000D01*
X72270000Y-96830000D02*
X72270000Y-101970000D01*
X72270000Y-96830000D02*
X74930000Y-96830000D01*
X74930000Y-94230000D02*
X74930000Y-95560000D01*
X72270000Y-101970000D02*
X74930000Y-101970000D01*
%TO.C,Display1*%
X81325000Y-94245000D02*
X82655000Y-94245000D01*
X82655000Y-96845000D02*
X82655000Y-101985000D01*
X79995000Y-96845000D02*
X79995000Y-101985000D01*
X79995000Y-96845000D02*
X82655000Y-96845000D01*
X82655000Y-94245000D02*
X82655000Y-95575000D01*
X79995000Y-101985000D02*
X82655000Y-101985000D01*
%TO.C,U2*%
X96740000Y-92960000D02*
X95090000Y-92960000D01*
X91440000Y-92960000D02*
X91440000Y-103240000D01*
X96740000Y-103240000D02*
X96740000Y-92960000D01*
X93090000Y-92960000D02*
X91440000Y-92960000D01*
X91440000Y-103240000D02*
X96740000Y-103240000D01*
X93090000Y-92960000D02*
G75*
G03*
X95090000Y-92960000I1000000J0D01*
G01*
%TO.C,U1*%
X22050000Y-96760000D02*
X39950000Y-96760000D01*
X40010000Y-99760000D02*
X40010000Y-89260000D01*
X40010000Y-89260000D02*
X21990000Y-89260000D01*
X39950000Y-93510000D02*
X39950000Y-92260000D01*
X21990000Y-99760000D02*
X40010000Y-99760000D01*
X21990000Y-89260000D02*
X21990000Y-99760000D01*
X22050000Y-92260000D02*
X22050000Y-96760000D01*
X39950000Y-96760000D02*
X39950000Y-95510000D01*
X39950000Y-92260000D02*
X22050000Y-92260000D01*
X39950000Y-93510000D02*
G75*
G03*
X39950000Y-95510000I0J-1000000D01*
G01*
%TO.C,U-xS1*%
X102970000Y-61495000D02*
X102970000Y-81935000D01*
X105205000Y-61495000D02*
X102970000Y-61495000D01*
X109440000Y-81935000D02*
X109440000Y-61495000D01*
X109440000Y-61495000D02*
X107205000Y-61495000D01*
X102970000Y-81935000D02*
X109440000Y-81935000D01*
X105205000Y-61495000D02*
G75*
G03*
X107205000Y-61495000I1000000J0D01*
G01*
%TO.C,U-xM1*%
X73955000Y-61495000D02*
G75*
G03*
X75955000Y-61495000I1000000J0D01*
G01*
X71720000Y-81935000D02*
X78190000Y-81935000D01*
X78190000Y-61495000D02*
X75955000Y-61495000D01*
X78190000Y-81935000D02*
X78190000Y-61495000D01*
X73955000Y-61495000D02*
X71720000Y-61495000D01*
X71720000Y-61495000D02*
X71720000Y-81935000D01*
%TO.C,U-xH1*%
X40720000Y-61495000D02*
X40720000Y-81935000D01*
X42955000Y-61495000D02*
X40720000Y-61495000D01*
X47190000Y-81935000D02*
X47190000Y-61495000D01*
X47190000Y-61495000D02*
X44955000Y-61495000D01*
X40720000Y-81935000D02*
X47190000Y-81935000D01*
X42955000Y-61495000D02*
G75*
G03*
X44955000Y-61495000I1000000J0D01*
G01*
%TO.C,U-Sx1*%
X87720000Y-61495000D02*
X87720000Y-81935000D01*
X89955000Y-61495000D02*
X87720000Y-61495000D01*
X94190000Y-81935000D02*
X94190000Y-61495000D01*
X94190000Y-61495000D02*
X91955000Y-61495000D01*
X87720000Y-81935000D02*
X94190000Y-81935000D01*
X89955000Y-61495000D02*
G75*
G03*
X91955000Y-61495000I1000000J0D01*
G01*
%TO.C,U-Mx1*%
X56720000Y-61495000D02*
X56720000Y-81935000D01*
X58955000Y-61495000D02*
X56720000Y-61495000D01*
X63190000Y-81935000D02*
X63190000Y-61495000D01*
X63190000Y-61495000D02*
X60955000Y-61495000D01*
X56720000Y-81935000D02*
X63190000Y-81935000D01*
X58955000Y-61495000D02*
G75*
G03*
X60955000Y-61495000I1000000J0D01*
G01*
%TO.C,Reset1*%
X65770000Y-104290000D02*
X59770000Y-104290000D01*
X59770000Y-104290000D02*
X59770000Y-104290000D01*
X59770000Y-104290000D02*
X65770000Y-104290000D01*
X65770000Y-104290000D02*
X65770000Y-104290000D01*
X65770000Y-98270000D02*
X65770000Y-98270000D01*
X65770000Y-98270000D02*
X65770000Y-104270000D01*
X65770000Y-104270000D02*
X65770000Y-104270000D01*
X65770000Y-104270000D02*
X65770000Y-98270000D01*
X59770000Y-98270000D02*
X65770000Y-98270000D01*
X65770000Y-98270000D02*
X65770000Y-98270000D01*
X65770000Y-98270000D02*
X59770000Y-98270000D01*
X59770000Y-98270000D02*
X59770000Y-98270000D01*
X59770000Y-104270000D02*
X59770000Y-104270000D01*
X59770000Y-104270000D02*
X59770000Y-98270000D01*
X59770000Y-98270000D02*
X59770000Y-98270000D01*
X59770000Y-98270000D02*
X59770000Y-104270000D01*
%TO.C,Rb1*%
X88250000Y-95920000D02*
X86410000Y-95920000D01*
X86410000Y-95920000D02*
X86410000Y-99760000D01*
X88250000Y-99760000D02*
X88250000Y-95920000D01*
X87330000Y-94970000D02*
X87330000Y-95920000D01*
X86410000Y-99760000D02*
X88250000Y-99760000D01*
X87330000Y-100710000D02*
X87330000Y-99760000D01*
%TO.C,RaTune1*%
X103270000Y-108725000D02*
X113040000Y-108725000D01*
X103270000Y-98955000D02*
X103270000Y-108725000D01*
X113040000Y-98955000D02*
X113040000Y-108725000D01*
X103270000Y-98955000D02*
X113040000Y-98955000D01*
%TO.C,Ra1*%
X99910000Y-105510000D02*
X101750000Y-105510000D01*
X101750000Y-105510000D02*
X101750000Y-101670000D01*
X99910000Y-101670000D02*
X99910000Y-105510000D01*
X100830000Y-106460000D02*
X100830000Y-105510000D01*
X101750000Y-101670000D02*
X99910000Y-101670000D01*
X100830000Y-100720000D02*
X100830000Y-101670000D01*
%TO.C,R45*%
X36000000Y-48130000D02*
X36000000Y-49080000D01*
X36920000Y-49080000D02*
X35080000Y-49080000D01*
X36000000Y-53870000D02*
X36000000Y-52920000D01*
X35080000Y-49080000D02*
X35080000Y-52920000D01*
X36920000Y-52920000D02*
X36920000Y-49080000D01*
X35080000Y-52920000D02*
X36920000Y-52920000D01*
%TO.C,R44*%
X40500000Y-48130000D02*
X40500000Y-49080000D01*
X41420000Y-49080000D02*
X39580000Y-49080000D01*
X40500000Y-53870000D02*
X40500000Y-52920000D01*
X39580000Y-49080000D02*
X39580000Y-52920000D01*
X41420000Y-52920000D02*
X41420000Y-49080000D01*
X39580000Y-52920000D02*
X41420000Y-52920000D01*
%TO.C,R43*%
X37330000Y-52860000D02*
X39170000Y-52860000D01*
X39170000Y-52860000D02*
X39170000Y-49020000D01*
X37330000Y-49020000D02*
X37330000Y-52860000D01*
X38250000Y-53810000D02*
X38250000Y-52860000D01*
X39170000Y-49020000D02*
X37330000Y-49020000D01*
X38250000Y-48070000D02*
X38250000Y-49020000D01*
%TO.C,R42*%
X42750000Y-48130000D02*
X42750000Y-49080000D01*
X43670000Y-49080000D02*
X41830000Y-49080000D01*
X42750000Y-53870000D02*
X42750000Y-52920000D01*
X41830000Y-49080000D02*
X41830000Y-52920000D01*
X43670000Y-52920000D02*
X43670000Y-49080000D01*
X41830000Y-52920000D02*
X43670000Y-52920000D01*
%TO.C,R41*%
X45000000Y-48130000D02*
X45000000Y-49080000D01*
X45920000Y-49080000D02*
X44080000Y-49080000D01*
X45000000Y-53870000D02*
X45000000Y-52920000D01*
X44080000Y-49080000D02*
X44080000Y-52920000D01*
X45920000Y-52920000D02*
X45920000Y-49080000D01*
X44080000Y-52920000D02*
X45920000Y-52920000D01*
%TO.C,R40*%
X49500000Y-48130000D02*
X49500000Y-49080000D01*
X50420000Y-49080000D02*
X48580000Y-49080000D01*
X49500000Y-53870000D02*
X49500000Y-52920000D01*
X48580000Y-49080000D02*
X48580000Y-52920000D01*
X50420000Y-52920000D02*
X50420000Y-49080000D01*
X48580000Y-52920000D02*
X50420000Y-52920000D01*
%TO.C,R39*%
X47250000Y-48130000D02*
X47250000Y-49080000D01*
X48170000Y-49080000D02*
X46330000Y-49080000D01*
X47250000Y-53870000D02*
X47250000Y-52920000D01*
X46330000Y-49080000D02*
X46330000Y-52920000D01*
X48170000Y-52920000D02*
X48170000Y-49080000D01*
X46330000Y-52920000D02*
X48170000Y-52920000D01*
%TO.C,R38*%
X22500000Y-48130000D02*
X22500000Y-49080000D01*
X23420000Y-49080000D02*
X21580000Y-49080000D01*
X22500000Y-53870000D02*
X22500000Y-52920000D01*
X21580000Y-49080000D02*
X21580000Y-52920000D01*
X23420000Y-52920000D02*
X23420000Y-49080000D01*
X21580000Y-52920000D02*
X23420000Y-52920000D01*
%TO.C,R37*%
X24750000Y-48130000D02*
X24750000Y-49080000D01*
X25670000Y-49080000D02*
X23830000Y-49080000D01*
X24750000Y-53870000D02*
X24750000Y-52920000D01*
X23830000Y-49080000D02*
X23830000Y-52920000D01*
X25670000Y-52920000D02*
X25670000Y-49080000D01*
X23830000Y-52920000D02*
X25670000Y-52920000D01*
%TO.C,R36*%
X27000000Y-48130000D02*
X27000000Y-49080000D01*
X27920000Y-49080000D02*
X26080000Y-49080000D01*
X27000000Y-53870000D02*
X27000000Y-52920000D01*
X26080000Y-49080000D02*
X26080000Y-52920000D01*
X27920000Y-52920000D02*
X27920000Y-49080000D01*
X26080000Y-52920000D02*
X27920000Y-52920000D01*
%TO.C,R35*%
X29250000Y-48130000D02*
X29250000Y-49080000D01*
X30170000Y-49080000D02*
X28330000Y-49080000D01*
X29250000Y-53870000D02*
X29250000Y-52920000D01*
X28330000Y-49080000D02*
X28330000Y-52920000D01*
X30170000Y-52920000D02*
X30170000Y-49080000D01*
X28330000Y-52920000D02*
X30170000Y-52920000D01*
%TO.C,R34*%
X33750000Y-48130000D02*
X33750000Y-49080000D01*
X34670000Y-49080000D02*
X32830000Y-49080000D01*
X33750000Y-53870000D02*
X33750000Y-52920000D01*
X32830000Y-49080000D02*
X32830000Y-52920000D01*
X34670000Y-52920000D02*
X34670000Y-49080000D01*
X32830000Y-52920000D02*
X34670000Y-52920000D01*
%TO.C,R33*%
X31500000Y-48130000D02*
X31500000Y-49080000D01*
X32420000Y-49080000D02*
X30580000Y-49080000D01*
X31500000Y-53870000D02*
X31500000Y-52920000D01*
X30580000Y-49080000D02*
X30580000Y-52920000D01*
X32420000Y-52920000D02*
X32420000Y-49080000D01*
X30580000Y-52920000D02*
X32420000Y-52920000D01*
%TO.C,R32*%
X67500000Y-48130000D02*
X67500000Y-49080000D01*
X68420000Y-49080000D02*
X66580000Y-49080000D01*
X67500000Y-53870000D02*
X67500000Y-52920000D01*
X66580000Y-49080000D02*
X66580000Y-52920000D01*
X68420000Y-52920000D02*
X68420000Y-49080000D01*
X66580000Y-52920000D02*
X68420000Y-52920000D01*
%TO.C,R31*%
X72000000Y-48130000D02*
X72000000Y-49080000D01*
X72920000Y-49080000D02*
X71080000Y-49080000D01*
X72000000Y-53870000D02*
X72000000Y-52920000D01*
X71080000Y-49080000D02*
X71080000Y-52920000D01*
X72920000Y-52920000D02*
X72920000Y-49080000D01*
X71080000Y-52920000D02*
X72920000Y-52920000D01*
%TO.C,R30*%
X69750000Y-48130000D02*
X69750000Y-49080000D01*
X70670000Y-49080000D02*
X68830000Y-49080000D01*
X69750000Y-53870000D02*
X69750000Y-52920000D01*
X68830000Y-49080000D02*
X68830000Y-52920000D01*
X70670000Y-52920000D02*
X70670000Y-49080000D01*
X68830000Y-52920000D02*
X70670000Y-52920000D01*
%TO.C,R29*%
X74250000Y-48130000D02*
X74250000Y-49080000D01*
X75170000Y-49080000D02*
X73330000Y-49080000D01*
X74250000Y-53870000D02*
X74250000Y-52920000D01*
X73330000Y-49080000D02*
X73330000Y-52920000D01*
X75170000Y-52920000D02*
X75170000Y-49080000D01*
X73330000Y-52920000D02*
X75170000Y-52920000D01*
%TO.C,R28*%
X76500000Y-48130000D02*
X76500000Y-49080000D01*
X77420000Y-49080000D02*
X75580000Y-49080000D01*
X76500000Y-53870000D02*
X76500000Y-52920000D01*
X75580000Y-49080000D02*
X75580000Y-52920000D01*
X77420000Y-52920000D02*
X77420000Y-49080000D01*
X75580000Y-52920000D02*
X77420000Y-52920000D01*
%TO.C,R27*%
X81000000Y-48130000D02*
X81000000Y-49080000D01*
X81920000Y-49080000D02*
X80080000Y-49080000D01*
X81000000Y-53870000D02*
X81000000Y-52920000D01*
X80080000Y-49080000D02*
X80080000Y-52920000D01*
X81920000Y-52920000D02*
X81920000Y-49080000D01*
X80080000Y-52920000D02*
X81920000Y-52920000D01*
%TO.C,R26*%
X78750000Y-48130000D02*
X78750000Y-49080000D01*
X79670000Y-49080000D02*
X77830000Y-49080000D01*
X78750000Y-53870000D02*
X78750000Y-52920000D01*
X77830000Y-49080000D02*
X77830000Y-52920000D01*
X79670000Y-52920000D02*
X79670000Y-49080000D01*
X77830000Y-52920000D02*
X79670000Y-52920000D01*
%TO.C,R25*%
X51750000Y-48130000D02*
X51750000Y-49080000D01*
X52670000Y-49080000D02*
X50830000Y-49080000D01*
X51750000Y-53870000D02*
X51750000Y-52920000D01*
X50830000Y-49080000D02*
X50830000Y-52920000D01*
X52670000Y-52920000D02*
X52670000Y-49080000D01*
X50830000Y-52920000D02*
X52670000Y-52920000D01*
%TO.C,R24*%
X56250000Y-48130000D02*
X56250000Y-49080000D01*
X57170000Y-49080000D02*
X55330000Y-49080000D01*
X56250000Y-53870000D02*
X56250000Y-52920000D01*
X55330000Y-49080000D02*
X55330000Y-52920000D01*
X57170000Y-52920000D02*
X57170000Y-49080000D01*
X55330000Y-52920000D02*
X57170000Y-52920000D01*
%TO.C,R23*%
X54000000Y-48130000D02*
X54000000Y-49080000D01*
X54920000Y-49080000D02*
X53080000Y-49080000D01*
X54000000Y-53870000D02*
X54000000Y-52920000D01*
X53080000Y-49080000D02*
X53080000Y-52920000D01*
X54920000Y-52920000D02*
X54920000Y-49080000D01*
X53080000Y-52920000D02*
X54920000Y-52920000D01*
%TO.C,R22*%
X58500000Y-48130000D02*
X58500000Y-49080000D01*
X59420000Y-49080000D02*
X57580000Y-49080000D01*
X58500000Y-53870000D02*
X58500000Y-52920000D01*
X57580000Y-49080000D02*
X57580000Y-52920000D01*
X59420000Y-52920000D02*
X59420000Y-49080000D01*
X57580000Y-52920000D02*
X59420000Y-52920000D01*
%TO.C,R21*%
X60750000Y-48130000D02*
X60750000Y-49080000D01*
X61670000Y-49080000D02*
X59830000Y-49080000D01*
X60750000Y-53870000D02*
X60750000Y-52920000D01*
X59830000Y-49080000D02*
X59830000Y-52920000D01*
X61670000Y-52920000D02*
X61670000Y-49080000D01*
X59830000Y-52920000D02*
X61670000Y-52920000D01*
%TO.C,R20*%
X65250000Y-48130000D02*
X65250000Y-49080000D01*
X66170000Y-49080000D02*
X64330000Y-49080000D01*
X65250000Y-53870000D02*
X65250000Y-52920000D01*
X64330000Y-49080000D02*
X64330000Y-52920000D01*
X66170000Y-52920000D02*
X66170000Y-49080000D01*
X64330000Y-52920000D02*
X66170000Y-52920000D01*
%TO.C,R19*%
X63000000Y-48130000D02*
X63000000Y-49080000D01*
X63920000Y-49080000D02*
X62080000Y-49080000D01*
X63000000Y-53870000D02*
X63000000Y-52920000D01*
X62080000Y-49080000D02*
X62080000Y-52920000D01*
X63920000Y-52920000D02*
X63920000Y-49080000D01*
X62080000Y-52920000D02*
X63920000Y-52920000D01*
%TO.C,R18*%
X101250000Y-48130000D02*
X101250000Y-49080000D01*
X102170000Y-49080000D02*
X100330000Y-49080000D01*
X101250000Y-53870000D02*
X101250000Y-52920000D01*
X100330000Y-49080000D02*
X100330000Y-52920000D01*
X102170000Y-52920000D02*
X102170000Y-49080000D01*
X100330000Y-52920000D02*
X102170000Y-52920000D01*
%TO.C,R17*%
X103500000Y-48130000D02*
X103500000Y-49080000D01*
X104420000Y-49080000D02*
X102580000Y-49080000D01*
X103500000Y-53870000D02*
X103500000Y-52920000D01*
X102580000Y-49080000D02*
X102580000Y-52920000D01*
X104420000Y-52920000D02*
X104420000Y-49080000D01*
X102580000Y-52920000D02*
X104420000Y-52920000D01*
%TO.C,R16*%
X105750000Y-48130000D02*
X105750000Y-49080000D01*
X106670000Y-49080000D02*
X104830000Y-49080000D01*
X105750000Y-53870000D02*
X105750000Y-52920000D01*
X104830000Y-49080000D02*
X104830000Y-52920000D01*
X106670000Y-52920000D02*
X106670000Y-49080000D01*
X104830000Y-52920000D02*
X106670000Y-52920000D01*
%TO.C,R15*%
X108000000Y-48130000D02*
X108000000Y-49080000D01*
X108920000Y-49080000D02*
X107080000Y-49080000D01*
X108000000Y-53870000D02*
X108000000Y-52920000D01*
X107080000Y-49080000D02*
X107080000Y-52920000D01*
X108920000Y-52920000D02*
X108920000Y-49080000D01*
X107080000Y-52920000D02*
X108920000Y-52920000D01*
%TO.C,R14*%
X110250000Y-48130000D02*
X110250000Y-49080000D01*
X111170000Y-49080000D02*
X109330000Y-49080000D01*
X110250000Y-53870000D02*
X110250000Y-52920000D01*
X109330000Y-49080000D02*
X109330000Y-52920000D01*
X111170000Y-52920000D02*
X111170000Y-49080000D01*
X109330000Y-52920000D02*
X111170000Y-52920000D01*
%TO.C,R13*%
X112500000Y-48130000D02*
X112500000Y-49080000D01*
X113420000Y-49080000D02*
X111580000Y-49080000D01*
X112500000Y-53870000D02*
X112500000Y-52920000D01*
X111580000Y-49080000D02*
X111580000Y-52920000D01*
X113420000Y-52920000D02*
X113420000Y-49080000D01*
X111580000Y-52920000D02*
X113420000Y-52920000D01*
%TO.C,R12*%
X99000000Y-48130000D02*
X99000000Y-49080000D01*
X99920000Y-49080000D02*
X98080000Y-49080000D01*
X99000000Y-53870000D02*
X99000000Y-52920000D01*
X98080000Y-49080000D02*
X98080000Y-52920000D01*
X99920000Y-52920000D02*
X99920000Y-49080000D01*
X98080000Y-52920000D02*
X99920000Y-52920000D01*
%TO.C,R11*%
X82330000Y-52920000D02*
X84170000Y-52920000D01*
X84170000Y-52920000D02*
X84170000Y-49080000D01*
X82330000Y-49080000D02*
X82330000Y-52920000D01*
X83250000Y-53870000D02*
X83250000Y-52920000D01*
X84170000Y-49080000D02*
X82330000Y-49080000D01*
X83250000Y-48130000D02*
X83250000Y-49080000D01*
%TO.C,R10*%
X84580000Y-52920000D02*
X86420000Y-52920000D01*
X86420000Y-52920000D02*
X86420000Y-49080000D01*
X84580000Y-49080000D02*
X84580000Y-52920000D01*
X85500000Y-53870000D02*
X85500000Y-52920000D01*
X86420000Y-49080000D02*
X84580000Y-49080000D01*
X85500000Y-48130000D02*
X85500000Y-49080000D01*
%TO.C,R9*%
X86830000Y-52920000D02*
X88670000Y-52920000D01*
X88670000Y-52920000D02*
X88670000Y-49080000D01*
X86830000Y-49080000D02*
X86830000Y-52920000D01*
X87750000Y-53870000D02*
X87750000Y-52920000D01*
X88670000Y-49080000D02*
X86830000Y-49080000D01*
X87750000Y-48130000D02*
X87750000Y-49080000D01*
%TO.C,R8*%
X89080000Y-52920000D02*
X90920000Y-52920000D01*
X90920000Y-52920000D02*
X90920000Y-49080000D01*
X89080000Y-49080000D02*
X89080000Y-52920000D01*
X90000000Y-53870000D02*
X90000000Y-52920000D01*
X90920000Y-49080000D02*
X89080000Y-49080000D01*
X90000000Y-48130000D02*
X90000000Y-49080000D01*
%TO.C,R7*%
X91330000Y-52920000D02*
X93170000Y-52920000D01*
X93170000Y-52920000D02*
X93170000Y-49080000D01*
X91330000Y-49080000D02*
X91330000Y-52920000D01*
X92250000Y-53870000D02*
X92250000Y-52920000D01*
X93170000Y-49080000D02*
X91330000Y-49080000D01*
X92250000Y-48130000D02*
X92250000Y-49080000D01*
%TO.C,R6*%
X96750000Y-48130000D02*
X96750000Y-49080000D01*
X97670000Y-49080000D02*
X95830000Y-49080000D01*
X96750000Y-53870000D02*
X96750000Y-52920000D01*
X95830000Y-49080000D02*
X95830000Y-52920000D01*
X97670000Y-52920000D02*
X97670000Y-49080000D01*
X95830000Y-52920000D02*
X97670000Y-52920000D01*
%TO.C,R5*%
X94500000Y-48130000D02*
X94500000Y-49080000D01*
X95420000Y-49080000D02*
X93580000Y-49080000D01*
X94500000Y-53870000D02*
X94500000Y-52920000D01*
X93580000Y-49080000D02*
X93580000Y-52920000D01*
X95420000Y-52920000D02*
X95420000Y-49080000D01*
X93580000Y-52920000D02*
X95420000Y-52920000D01*
%TO.C,R4*%
X84190000Y-108760000D02*
X84190000Y-106920000D01*
X84190000Y-106920000D02*
X80350000Y-106920000D01*
X80350000Y-108760000D02*
X84190000Y-108760000D01*
X85140000Y-107840000D02*
X84190000Y-107840000D01*
X80350000Y-106920000D02*
X80350000Y-108760000D01*
X79400000Y-107840000D02*
X80350000Y-107840000D01*
%TO.C,R3*%
X91250000Y-91010000D02*
X91250000Y-89170000D01*
X91250000Y-89170000D02*
X87410000Y-89170000D01*
X87410000Y-91010000D02*
X91250000Y-91010000D01*
X92200000Y-90090000D02*
X91250000Y-90090000D01*
X87410000Y-89170000D02*
X87410000Y-91010000D01*
X86460000Y-90090000D02*
X87410000Y-90090000D01*
%TO.C,R2*%
X110980000Y-93530000D02*
X112820000Y-93530000D01*
X112820000Y-93530000D02*
X112820000Y-89690000D01*
X110980000Y-89690000D02*
X110980000Y-93530000D01*
X111900000Y-94480000D02*
X111900000Y-93530000D01*
X112820000Y-89690000D02*
X110980000Y-89690000D01*
X111900000Y-88740000D02*
X111900000Y-89690000D01*
%TO.C,R1*%
X70280000Y-88980000D02*
X70280000Y-90820000D01*
X70280000Y-90820000D02*
X74120000Y-90820000D01*
X74120000Y-88980000D02*
X70280000Y-88980000D01*
X69330000Y-89900000D02*
X70280000Y-89900000D01*
X74120000Y-90820000D02*
X74120000Y-88980000D01*
X75070000Y-89900000D02*
X74120000Y-89900000D01*
%TO.C,Minute1*%
X58770000Y-104290000D02*
X52770000Y-104290000D01*
X52770000Y-104290000D02*
X52770000Y-104290000D01*
X52770000Y-104290000D02*
X58770000Y-104290000D01*
X58770000Y-104290000D02*
X58770000Y-104290000D01*
X58770000Y-98270000D02*
X58770000Y-98270000D01*
X58770000Y-98270000D02*
X58770000Y-104270000D01*
X58770000Y-104270000D02*
X58770000Y-104270000D01*
X58770000Y-104270000D02*
X58770000Y-98270000D01*
X52770000Y-98270000D02*
X58770000Y-98270000D01*
X58770000Y-98270000D02*
X58770000Y-98270000D01*
X58770000Y-98270000D02*
X52770000Y-98270000D01*
X52770000Y-98270000D02*
X52770000Y-98270000D01*
X52770000Y-104270000D02*
X52770000Y-104270000D01*
X52770000Y-104270000D02*
X52770000Y-98270000D01*
X52770000Y-98270000D02*
X52770000Y-98270000D01*
X52770000Y-98270000D02*
X52770000Y-104270000D01*
%TO.C,Hour1*%
X51730000Y-104250000D02*
X45730000Y-104250000D01*
X45730000Y-104250000D02*
X45730000Y-104250000D01*
X45730000Y-104250000D02*
X51730000Y-104250000D01*
X51730000Y-104250000D02*
X51730000Y-104250000D01*
X51730000Y-98230000D02*
X51730000Y-98230000D01*
X51730000Y-98230000D02*
X51730000Y-104230000D01*
X51730000Y-104230000D02*
X51730000Y-104230000D01*
X51730000Y-104230000D02*
X51730000Y-98230000D01*
X45730000Y-98230000D02*
X51730000Y-98230000D01*
X51730000Y-98230000D02*
X51730000Y-98230000D01*
X51730000Y-98230000D02*
X45730000Y-98230000D01*
X45730000Y-98230000D02*
X45730000Y-98230000D01*
X45730000Y-104230000D02*
X45730000Y-104230000D01*
X45730000Y-104230000D02*
X45730000Y-98230000D01*
X45730000Y-98230000D02*
X45730000Y-98230000D01*
X45730000Y-98230000D02*
X45730000Y-104230000D01*
%TO.C,Ctime1*%
X96400000Y-108680000D02*
X96400000Y-109896000D01*
X97681000Y-106489000D02*
X97681000Y-107000000D01*
X97521000Y-106324000D02*
X97521000Y-107000000D01*
X97841000Y-108680000D02*
X97841000Y-108982000D01*
X97641000Y-106444000D02*
X97641000Y-107000000D01*
X97561000Y-106362000D02*
X97561000Y-107000000D01*
X97521000Y-108680000D02*
X97521000Y-109356000D01*
X96360000Y-108680000D02*
X96360000Y-109902000D01*
X97001000Y-108680000D02*
X97001000Y-109710000D01*
X96680000Y-108680000D02*
X96680000Y-109834000D01*
X96520000Y-105806000D02*
X96520000Y-107000000D01*
X98121000Y-107303000D02*
X98121000Y-108377000D01*
X98161000Y-107470000D02*
X98161000Y-108210000D01*
X96160000Y-105761000D02*
X96160000Y-109919000D01*
X96280000Y-105769000D02*
X96280000Y-107000000D01*
X96841000Y-105900000D02*
X96841000Y-107000000D01*
X97961000Y-106900000D02*
X97961000Y-108780000D01*
X97601000Y-106402000D02*
X97601000Y-107000000D01*
X97321000Y-106160000D02*
X97321000Y-107000000D01*
X96760000Y-105872000D02*
X96760000Y-107000000D01*
X96841000Y-108680000D02*
X96841000Y-109780000D01*
X96801000Y-105886000D02*
X96801000Y-107000000D01*
X96200000Y-105763000D02*
X96200000Y-109917000D01*
X96120000Y-105760000D02*
X96120000Y-109920000D01*
X96320000Y-105773000D02*
X96320000Y-107000000D01*
X97041000Y-105989000D02*
X97041000Y-107000000D01*
X97561000Y-108680000D02*
X97561000Y-109318000D01*
X97001000Y-105970000D02*
X97001000Y-107000000D01*
X96560000Y-108680000D02*
X96560000Y-109865000D01*
X97161000Y-108680000D02*
X97161000Y-109625000D01*
X97761000Y-106586000D02*
X97761000Y-107000000D01*
X97241000Y-106105000D02*
X97241000Y-107000000D01*
X97281000Y-108680000D02*
X97281000Y-109548000D01*
X96440000Y-108680000D02*
X96440000Y-109890000D01*
X96640000Y-108680000D02*
X96640000Y-109845000D01*
X97121000Y-108680000D02*
X97121000Y-109648000D01*
X96600000Y-108680000D02*
X96600000Y-109856000D01*
X96720000Y-108680000D02*
X96720000Y-109822000D01*
X97601000Y-108680000D02*
X97601000Y-109278000D01*
X96801000Y-108680000D02*
X96801000Y-109794000D01*
X96921000Y-108680000D02*
X96921000Y-109747000D01*
X97801000Y-108680000D02*
X97801000Y-109040000D01*
X97721000Y-106536000D02*
X97721000Y-107000000D01*
X97481000Y-106288000D02*
X97481000Y-107000000D01*
X97441000Y-108680000D02*
X97441000Y-109427000D01*
X97761000Y-108680000D02*
X97761000Y-109094000D01*
X97921000Y-106827000D02*
X97921000Y-108853000D01*
X97401000Y-106221000D02*
X97401000Y-107000000D01*
X97201000Y-108680000D02*
X97201000Y-109600000D01*
X97201000Y-106080000D02*
X97201000Y-107000000D01*
X97801000Y-106640000D02*
X97801000Y-107000000D01*
X97081000Y-106010000D02*
X97081000Y-107000000D01*
X96961000Y-105951000D02*
X96961000Y-107000000D01*
X97241000Y-108680000D02*
X97241000Y-109575000D01*
X96881000Y-105916000D02*
X96881000Y-107000000D01*
X97721000Y-108680000D02*
X97721000Y-109144000D01*
X96520000Y-108680000D02*
X96520000Y-109874000D01*
X97321000Y-108680000D02*
X97321000Y-109520000D01*
X93810199Y-106645000D02*
X94210199Y-106645000D01*
X96400000Y-105784000D02*
X96400000Y-107000000D01*
X98041000Y-107072000D02*
X98041000Y-108608000D01*
X96720000Y-105858000D02*
X96720000Y-107000000D01*
X94010199Y-106445000D02*
X94010199Y-106845000D01*
X97041000Y-108680000D02*
X97041000Y-109691000D01*
X97121000Y-106032000D02*
X97121000Y-107000000D01*
X96480000Y-105798000D02*
X96480000Y-107000000D01*
X97641000Y-108680000D02*
X97641000Y-109236000D01*
X97161000Y-106055000D02*
X97161000Y-107000000D01*
X97441000Y-106253000D02*
X97441000Y-107000000D01*
X96881000Y-108680000D02*
X96881000Y-109764000D01*
X97401000Y-108680000D02*
X97401000Y-109459000D01*
X96680000Y-105846000D02*
X96680000Y-107000000D01*
X96480000Y-108680000D02*
X96480000Y-109882000D01*
X96921000Y-105933000D02*
X96921000Y-107000000D01*
X96240000Y-105766000D02*
X96240000Y-109914000D01*
X96760000Y-108680000D02*
X96760000Y-109808000D01*
X97081000Y-108680000D02*
X97081000Y-109670000D01*
X97361000Y-108680000D02*
X97361000Y-109490000D01*
X97881000Y-108680000D02*
X97881000Y-108920000D01*
X97881000Y-106760000D02*
X97881000Y-107000000D01*
X96961000Y-108680000D02*
X96961000Y-109729000D01*
X96080000Y-105760000D02*
X96080000Y-109920000D01*
X97281000Y-106132000D02*
X97281000Y-107000000D01*
X98081000Y-107176000D02*
X98081000Y-108504000D01*
X96320000Y-108680000D02*
X96320000Y-109907000D01*
X97481000Y-108680000D02*
X97481000Y-109392000D01*
X98001000Y-106981000D02*
X98001000Y-108699000D01*
X96280000Y-108680000D02*
X96280000Y-109911000D01*
X96600000Y-105824000D02*
X96600000Y-107000000D01*
X97681000Y-108680000D02*
X97681000Y-109191000D01*
X96440000Y-105790000D02*
X96440000Y-107000000D01*
X97841000Y-106698000D02*
X97841000Y-107000000D01*
X96560000Y-105815000D02*
X96560000Y-107000000D01*
X97361000Y-106190000D02*
X97361000Y-107000000D01*
X96640000Y-105835000D02*
X96640000Y-107000000D01*
X96360000Y-105778000D02*
X96360000Y-107000000D01*
X98200000Y-107840000D02*
G75*
G03*
X98200000Y-107840000I-2120000J0D01*
G01*
%TO.C,Cd1*%
X88060000Y-109260000D02*
X92100000Y-109260000D01*
X92100000Y-106420000D02*
X92100000Y-107045000D01*
X92100000Y-108635000D02*
X92100000Y-109260000D01*
X88060000Y-106420000D02*
X88060000Y-107045000D01*
X88060000Y-108635000D02*
X88060000Y-109260000D01*
X88060000Y-106420000D02*
X92100000Y-106420000D01*
%TD*%
M02*
