M48
; DRILL file {KiCad (6.0.2)} date Tue Aug 16 14:22:13 2022
; FORMAT={-:-/ absolute / metric / decimal}
; #@! TF.CreationDate,2022-08-16T14:22:13+04:00
; #@! TF.GenerationSoftware,Kicad,Pcbnew,(6.0.2)
; #@! TF.FileFunction,Plated,1,2,PTH
FMAT,2
METRIC
; #@! TA.AperFunction,Plated,PTH,ViaDrill
T1C0.400
; #@! TA.AperFunction,Plated,PTH,ComponentDrill
T2C0.600
; #@! TA.AperFunction,Plated,PTH,ComponentDrill
T3C0.700
; #@! TA.AperFunction,Plated,PTH,ComponentDrill
T4C0.762
; #@! TA.AperFunction,Plated,PTH,ComponentDrill
T5C0.800
; #@! TA.AperFunction,Plated,PTH,ComponentDrill
T6C1.000
%
G90
G05
T1
X20.5Y-84.2
X20.8Y-77.9
X21.5Y-74.6
X21.9Y-57.7
X21.9Y-60.4
X23.3Y-84.2
X23.3Y-86.8
X25.1Y-84.0
X25.2Y-88.0
X26.5Y-60.4
X26.5Y-70.6
X26.9Y-86.8
X27.1Y-81.0
X27.8Y-60.5
X27.8Y-70.6
X29.2Y-65.0
X29.7Y-58.3
X30.4Y-76.7
X30.4Y-79.3
X32.5Y-60.8
X32.7Y-59.0
X34.9Y-56.8
X35.058Y-58.17
X36.3Y-58.6
X36.4Y-81.8
X36.4Y-83.7
X38.2Y-59.9
X40.2Y-58.6
X40.25Y-57.05
X41.5Y-83.4
X42.0Y-85.9
X43.5Y-68.3
X44.4Y-101.7
X44.5Y-74.0
X45.3Y-92.6
X47.65Y-83.55
X47.7Y-89.4
X48.3Y-96.6
X49.0Y-57.8
X49.0Y-60.5
X50.9Y-71.1
X51.1Y-92.6
X51.4Y-84.201
X53.7Y-86.7
X55.2Y-84.6
X56.2Y-83.3
X57.0Y-76.8
X59.5Y-79.3
X59.6Y-64.1
X59.7Y-83.2
X60.0Y-89.4
X60.4Y-59.4
X60.4Y-67.5
X61.0Y-79.3
X63.7Y-60.5
X64.6Y-85.0
X65.7Y-57.0
X65.8Y-90.2
X68.5Y-96.7
X71.4Y-58.4
X71.5Y-84.1
X71.5Y-87.3
X71.8Y-56.6
X72.9Y-75.2
X74.8Y-84.1
X74.899Y-75.9
X75.3Y-62.9
X75.7Y-78.0
X75.9Y-58.2
X76.01Y-87.21
X76.5Y-65.5
X76.5Y-82.9
X77.3Y-62.9
X77.8Y-67.5
X78.6Y-87.2
X80.5Y-56.643
X81.3Y-58.0
X82.5Y-84.1
X82.6Y-87.3
X83.768Y-60.404
X83.8Y-58.0
X85.7Y-83.2
X86.3Y-59.8
X89.001Y-57.2
X89.4Y-81.3
X90.2Y-64.0
X91.2Y-69.3
X92.5Y-78.3
X92.7Y-65.9
X93.3Y-74.6
X93.4Y-62.2
X93.5Y-59.3
X96.0Y-57.2
X96.0Y-60.7
X98.8Y-60.1
X100.5Y-58.3
X100.5Y-88.4
X100.8Y-83.2
X103.0Y-66.7
X103.5Y-64.0
X103.5Y-79.2
X103.8Y-58.3
X104.499Y-63.335
X104.915Y-69.086
X105.0Y-59.4
X105.5Y-65.3
X106.7Y-63.2
X107.273Y-56.5
X108.8Y-80.0
X110.6Y-56.7
T2
X95.08Y-107.84
X97.08Y-107.84
X107.5Y-91.6
X107.5Y-93.6
T3
X22.5Y-47.19
X22.5Y-54.81
X24.75Y-47.19
X24.75Y-54.81
X25.28Y-28.6
X27.0Y-47.19
X27.0Y-54.81
X29.25Y-47.19
X29.25Y-54.81
X31.5Y-47.19
X31.5Y-54.81
X32.9Y-28.6
X33.75Y-47.19
X33.75Y-54.81
X36.0Y-47.19
X36.0Y-54.81
X38.25Y-47.13
X38.25Y-54.75
X40.5Y-47.19
X40.5Y-54.81
X42.75Y-47.19
X42.75Y-54.81
X45.0Y-47.19
X45.0Y-54.81
X47.25Y-47.19
X47.25Y-54.81
X49.5Y-47.19
X49.5Y-54.81
X51.75Y-47.19
X51.75Y-54.81
X54.0Y-47.19
X54.0Y-54.81
X56.25Y-47.19
X56.25Y-54.81
X58.5Y-47.19
X58.5Y-54.81
X60.75Y-47.19
X60.75Y-54.81
X63.0Y-47.19
X63.0Y-54.81
X65.25Y-47.19
X65.25Y-54.81
X67.5Y-47.19
X67.5Y-54.81
X68.39Y-89.9
X69.75Y-47.19
X69.75Y-54.81
X72.0Y-47.19
X72.0Y-54.81
X74.25Y-47.19
X74.25Y-54.81
X76.01Y-89.9
X76.5Y-47.19
X76.5Y-54.81
X78.46Y-107.84
X78.75Y-47.19
X78.75Y-54.81
X81.0Y-47.19
X81.0Y-54.81
X83.25Y-47.19
X83.25Y-54.81
X85.5Y-47.19
X85.5Y-54.81
X85.52Y-90.09
X86.08Y-107.84
X87.33Y-94.03
X87.33Y-101.65
X87.75Y-47.19
X87.75Y-54.81
X90.0Y-47.19
X90.0Y-54.81
X92.25Y-47.19
X92.25Y-54.81
X93.14Y-90.09
X94.5Y-47.19
X94.5Y-54.81
X96.75Y-47.19
X96.75Y-54.81
X99.0Y-47.19
X99.0Y-54.81
X100.83Y-99.78
X100.83Y-107.4
X101.25Y-47.19
X101.25Y-54.81
X103.5Y-47.19
X103.5Y-54.81
X105.75Y-47.19
X105.75Y-54.81
X108.0Y-47.19
X108.0Y-54.81
X110.25Y-47.19
X110.25Y-54.81
X111.9Y-87.8
X111.9Y-95.42
X112.5Y-47.19
X112.5Y-54.81
T4
X47.46Y-99.96
X47.46Y-102.5
X50.0Y-99.96
X50.0Y-102.5
X54.5Y-100.0
X54.5Y-102.54
X57.04Y-100.0
X57.04Y-102.54
X61.5Y-100.0
X61.5Y-102.54
X64.04Y-100.0
X64.04Y-102.54
T5
X23.38Y-90.7
X23.38Y-98.32
X23.875Y-62.825
X23.875Y-65.365
X23.875Y-67.905
X23.875Y-70.445
X23.875Y-72.985
X23.875Y-75.525
X23.875Y-78.065
X23.875Y-80.605
X23.92Y-23.258
X23.92Y-38.497
X25.92Y-90.7
X25.92Y-98.32
X26.46Y-23.258
X26.46Y-38.497
X28.46Y-90.7
X28.46Y-98.32
X29.0Y-23.258
X29.0Y-38.497
X31.0Y-90.7
X31.0Y-98.32
X31.54Y-23.258
X31.54Y-38.497
X33.54Y-90.7
X33.54Y-98.32
X34.035Y-62.825
X34.035Y-65.365
X34.035Y-67.905
X34.035Y-70.445
X34.035Y-72.985
X34.035Y-75.525
X34.035Y-78.065
X34.035Y-80.605
X34.08Y-23.258
X34.08Y-38.497
X36.08Y-90.7
X36.08Y-98.32
X38.62Y-90.7
X38.62Y-98.32
X38.875Y-62.825
X38.875Y-65.365
X38.875Y-67.905
X38.875Y-70.445
X38.875Y-72.985
X38.875Y-75.525
X38.875Y-78.065
X38.875Y-80.605
X38.92Y-23.258
X38.92Y-38.497
X41.46Y-23.258
X41.46Y-38.497
X44.0Y-23.258
X44.0Y-38.497
X46.54Y-23.258
X46.54Y-38.497
X49.035Y-62.825
X49.035Y-65.365
X49.035Y-67.905
X49.035Y-70.445
X49.035Y-72.985
X49.035Y-75.525
X49.035Y-78.065
X49.035Y-80.605
X49.08Y-23.258
X49.08Y-38.497
X54.875Y-62.825
X54.875Y-65.365
X54.875Y-67.905
X54.875Y-70.445
X54.875Y-72.985
X54.875Y-75.525
X54.875Y-78.065
X54.875Y-80.605
X54.92Y-23.258
X54.92Y-38.497
X57.46Y-23.258
X57.46Y-38.497
X60.0Y-23.258
X60.0Y-38.497
X62.54Y-23.258
X62.54Y-38.497
X65.035Y-62.825
X65.035Y-65.365
X65.035Y-67.905
X65.035Y-70.445
X65.035Y-72.985
X65.035Y-75.525
X65.035Y-78.065
X65.035Y-80.605
X65.08Y-23.258
X65.08Y-38.497
X69.875Y-62.825
X69.875Y-65.365
X69.875Y-67.905
X69.875Y-70.445
X69.875Y-72.985
X69.875Y-75.525
X69.875Y-78.065
X69.875Y-80.605
X69.92Y-23.258
X69.92Y-38.497
X72.46Y-23.258
X72.46Y-38.497
X75.0Y-23.258
X75.0Y-38.497
X77.54Y-23.258
X77.54Y-38.497
X80.035Y-62.825
X80.035Y-65.365
X80.035Y-67.905
X80.035Y-70.445
X80.035Y-72.985
X80.035Y-75.525
X80.035Y-78.065
X80.035Y-80.605
X80.08Y-23.258
X80.08Y-38.497
X85.875Y-62.825
X85.875Y-65.365
X85.875Y-67.905
X85.875Y-70.445
X85.875Y-72.985
X85.875Y-75.525
X85.875Y-78.065
X85.875Y-80.605
X85.92Y-23.258
X85.92Y-38.497
X88.46Y-23.258
X88.46Y-38.497
X88.83Y-107.84
X90.28Y-94.29
X90.28Y-96.83
X90.28Y-99.37
X90.28Y-101.91
X91.0Y-23.258
X91.0Y-38.497
X91.33Y-107.84
X93.54Y-23.258
X93.54Y-38.497
X96.035Y-62.825
X96.035Y-65.365
X96.035Y-67.905
X96.035Y-70.445
X96.035Y-72.985
X96.035Y-75.525
X96.035Y-78.065
X96.035Y-80.605
X96.08Y-23.258
X96.08Y-38.497
X97.9Y-94.29
X97.9Y-96.83
X97.9Y-99.37
X97.9Y-101.91
X100.92Y-23.258
X100.92Y-38.497
X101.125Y-62.825
X101.125Y-65.365
X101.125Y-67.905
X101.125Y-70.445
X101.125Y-72.985
X101.125Y-75.525
X101.125Y-78.065
X101.125Y-80.605
X103.46Y-23.258
X103.46Y-38.497
X105.5Y-101.3
X105.5Y-106.38
X106.0Y-23.258
X106.0Y-38.497
X108.54Y-23.258
X108.54Y-38.497
X110.58Y-103.84
X111.08Y-23.258
X111.08Y-38.497
X111.285Y-62.825
X111.285Y-65.365
X111.285Y-67.905
X111.285Y-70.445
X111.285Y-72.985
X111.285Y-75.525
X111.285Y-78.065
X111.285Y-80.605
T6
X73.6Y-95.56
X73.6Y-98.1
X73.6Y-100.64
X81.325Y-95.575
X81.325Y-98.115
X81.325Y-100.655
T6
G00X24.8Y-106.9
M15
G01X24.8Y-108.9
M16
G05
G00X26.8Y-103.2
M15
G01X28.8Y-103.2
M16
G05
G00X30.8Y-106.9
M15
G01X30.8Y-108.9
M16
G05
T0
M30
